<?xml version="1.0" encoding="UTF-8"?>
<svg version="1.1" xmlns="http://www.w3.org/2000/svg" width="470" height="92">
<path d="M0 0 C7.23016443 0.22186425 13.08511867 4.23330252 18.296875 9.00390625 C25.40580034 17.11502971 30.28551192 27.49035796 34.375 37.375 C34.48274364 27.03161099 34.32697057 16.84187334 33.3984375 6.53515625 C33.375 3.375 33.375 3.375 35.375 0.375 C37.875 0.0625 37.875 0.0625 40.375 0.375 C42.375 2.375 42.375 2.375 42.60877991 4.26332092 C42.60132248 5.03115402 42.59386505 5.79898712 42.58618164 6.59008789 C42.58280289 7.46182144 42.57942413 8.33355499 42.57594299 9.23170471 C42.56248337 10.17746872 42.54902374 11.12323273 42.53515625 12.09765625 C42.52995468 13.07230331 42.52475311 14.04695038 42.51939392 15.0511322 C42.50153855 18.18007077 42.4704096 21.30868629 42.4375 24.4375 C42.40976821 27.54129013 42.38500964 30.64502796 42.36631775 33.74888611 C42.35419183 35.68119093 42.33672141 37.61347225 42.31300354 39.54566956 C42.28109305 43.91283056 42.40602831 48.14046245 42.93920898 52.47827148 C43.08302002 53.76419189 43.22683105 55.0501123 43.375 56.375 C42.375 57.375 42.375 57.375 39.5625 57.75 C36.375 57.375 36.375 57.375 34.34179688 55.20849609 C32.40243039 52.41451802 31.04528413 49.79008247 29.71875 46.6640625 C29.25339844 45.58382812 28.78804687 44.50359375 28.30859375 43.390625 C27.83550781 42.27171875 27.36242187 41.1528125 26.875 40 C22.11555227 27.75558653 22.11555227 27.75558653 14.375 17.375 C14.375 16.715 14.375 16.055 14.375 15.375 C13.83875 15.1275 13.3025 14.88 12.75 14.625 C9.81158196 13.07846419 7.12692975 11.22972526 4.375 9.375 C4.51783111 13.50010947 4.66467349 17.62506668 4.8125 21.75 C4.85544189 22.97396484 4.89838379 24.19792969 4.94262695 25.45898438 C5.14446185 31.00126144 5.3618559 36.53660138 5.734375 42.0703125 C5.78924072 42.89354004 5.84410645 43.71676758 5.90063477 44.56494141 C6.00613069 46.0705258 6.12075919 47.57550669 6.24584961 49.07958984 C6.50929999 52.84642801 6.54423766 54.12114351 4.375 57.375 C1.25 57.5625 1.25 57.5625 -1.625 57.375 C-7.35001873 45.92496253 -2.10264175 21.30054471 -1.625 8.375 C-2.945 8.045 -4.265 7.715 -5.625 7.375 C-5.75 5 -5.75 5 -5.625 2.375 C-3.625 0.375 -3.625 0.375 0 0 Z " fill="#6DD060" transform="translate(220.625,18.625)"/>
<path d="M0 0 C0.90387955 -0.0033284 1.80775909 -0.0066568 2.73902893 -0.01008606 C4.65487152 -0.01515921 6.57072297 -0.01749427 8.48657227 -0.01733398 C11.42544043 -0.01951938 14.36393277 -0.0376679 17.30273438 -0.05664062 C19.16015496 -0.05957462 21.01757734 -0.06155938 22.875 -0.0625 C23.75836533 -0.06968552 24.64173065 -0.07687103 25.55186462 -0.08427429 C31.77508486 -0.06085264 31.77508486 -0.06085264 34.00390625 2.16796875 C33.62890625 4.29296875 33.62890625 4.29296875 33.00390625 6.16796875 C31.35390625 6.49796875 29.70390625 6.82796875 28.00390625 7.16796875 C28.49890625 8.65296875 28.49890625 8.65296875 29.00390625 10.16796875 C29.11645118 11.57147028 29.18157621 12.9791051 29.21484375 14.38671875 C29.25472412 15.64826782 29.25472412 15.64826782 29.29541016 16.93530273 C29.32296387 17.83708252 29.35051758 18.7388623 29.37890625 19.66796875 C29.6804862 27.90138711 30.53282566 35.8555378 32.07568359 43.94921875 C32.87280591 48.31079516 33.12905918 51.78258352 32.00390625 56.16796875 C31.00390625 57.16796875 31.00390625 57.16796875 28.56640625 57.35546875 C26.00390625 57.16796875 26.00390625 57.16796875 24.00390625 55.16796875 C22.81014178 50.22773593 22.88625174 45.33887433 22.94140625 40.29296875 C22.96203125 37.61171875 22.98265625 34.93046875 23.00390625 32.16796875 C15.41390625 32.16796875 7.82390625 32.16796875 0.00390625 32.16796875 C-0.98609375 35.79796875 -1.97609375 39.42796875 -2.99609375 43.16796875 C-4.49609375 46.796875 -4.49609375 46.796875 -5.99609375 49.73046875 C-6.49109375 50.72175781 -6.98609375 51.71304688 -7.49609375 52.734375 C-8.99609375 55.16796875 -8.99609375 55.16796875 -11.99609375 57.16796875 C-14.62109375 57.35546875 -14.62109375 57.35546875 -16.99609375 57.16796875 C-17.99609375 56.16796875 -17.99609375 56.16796875 -18.43359375 53.54296875 C-17.8926094 49.36966092 -16.46844208 48.1439367 -13.6640625 45.1796875 C-10.69835039 41.60277477 -8.90909347 37.37487521 -6.99609375 33.16796875 C-8.31609375 32.83796875 -9.63609375 32.50796875 -10.99609375 32.16796875 C-12.12109375 28.41796875 -12.12109375 28.41796875 -10.99609375 26.16796875 C-9.82046875 26.08546875 -8.64484375 26.00296875 -7.43359375 25.91796875 C-3.78214006 25.14820284 -2.98128861 24.14722088 -0.7578125 21.03125 C1.31092553 17.48643692 3.14978192 13.82834097 5.00390625 10.16796875 C5.66390625 9.17796875 6.32390625 8.18796875 7.00390625 7.16796875 C5.86050781 7.17957031 4.71710938 7.19117188 3.5390625 7.203125 C2.04817871 7.21250163 0.55729316 7.22160196 -0.93359375 7.23046875 C-2.06571289 7.24303711 -2.06571289 7.24303711 -3.22070312 7.25585938 C-5.14603688 7.26449316 -7.07144956 7.22021208 -8.99609375 7.16796875 C-9.99609375 6.16796875 -9.99609375 6.16796875 -10.12109375 3.66796875 C-9.84397792 -1.87434793 -4.34049105 0.00545545 0 0 Z M11.04296875 10.88671875 C7.57907601 14.7620317 3.00390625 20.77145406 3.00390625 26.16796875 C9.27390625 26.16796875 15.54390625 26.16796875 22.00390625 26.16796875 C22.02453125 23.61046875 22.04515625 21.05296875 22.06640625 18.41796875 C22.07551025 17.61907227 22.08461426 16.82017578 22.09399414 15.99707031 C22.10749528 12.53903737 21.93767509 9.48947175 21.00390625 6.16796875 C15.91699595 6.16796875 14.66464679 7.57702047 11.04296875 10.88671875 Z " fill="#6DD05F" transform="translate(286.99609375,18.83203125)"/>
<path d="M0 0 C0.93005859 -0.03738281 1.86011719 -0.07476563 2.81835938 -0.11328125 C9.39358448 -0.19645346 13.93051912 0.96873152 18.9375 5.375 C21.37272498 9.02783747 21.49224367 12.12468452 20.9375 16.375 C19.921875 18.62890625 19.921875 18.62890625 18.9375 20.375 C19.63617188 20.95507812 20.33484375 21.53515625 21.0546875 22.1328125 C21.96476562 22.91398437 22.87484375 23.69515625 23.8125 24.5 C24.71742187 25.26570313 25.62234375 26.03140625 26.5546875 26.8203125 C29.68903438 30.18074342 30.8258804 33.14260805 31.0546875 37.71875 C30.30371868 44.40479497 28.06257257 48.66164566 22.9375 53.125 C18.34217388 56.57149459 15.68628552 57.62787824 9.89453125 57.60546875 C8.16106445 57.60256836 8.16106445 57.60256836 6.39257812 57.59960938 C4.58950195 57.58124023 4.58950195 57.58124023 2.75 57.5625 C1.53634766 57.56185547 0.32269531 57.56121094 -0.92773438 57.56054688 C-9.92225288 57.51524712 -9.92225288 57.51524712 -11.0625 56.375 C-11.10313832 54.70882885 -11.105221 53.04111905 -11.0625 51.375 C-8.5875 50.88 -8.5875 50.88 -6.0625 50.375 C-6.0625 36.185 -6.0625 21.995 -6.0625 7.375 C-7.7125 7.045 -9.3625 6.715 -11.0625 6.375 C-11.105221 4.70888095 -11.10313832 3.04117115 -11.0625 1.375 C-8.7166732 -0.9708268 -3.14333323 0.0465679 0 0 Z M1.9375 6.375 C1.9375 11.985 1.9375 17.595 1.9375 23.375 C9.48964007 22.23678707 9.48964007 22.23678707 14.8125 17.5625 C14.96886802 13.57511555 14.17644936 11.6587924 11.9375 8.375 C8.47520697 5.74843287 6.68763092 6.375 1.9375 6.375 Z M1.9375 28.375 C1.9375 35.965 1.9375 43.555 1.9375 51.375 C11.37633321 52.71492979 11.37633321 52.71492979 18.9375 49.375 C22.00725955 46.6122164 22.63125227 43.54512823 23.00390625 39.46875 C22.86550609 35.1050743 21.127177 31.69686333 18.25 28.5 C12.08811734 25.50232736 8.27500788 26.26249737 1.9375 28.375 Z " fill="#6CD05E" transform="translate(27.0625,18.625)"/>
<path d="M0 0 C2.5 0.25 2.5 0.25 4.5 2.25 C4.64770508 4.99291992 4.64770508 4.99291992 4.51953125 8.48046875 C4.47058716 10.38844238 4.47058716 10.38844238 4.4206543 12.33496094 C4.40191254 13.00619995 4.38317078 13.67743896 4.36386108 14.36901855 C3.63622479 31.50723285 3.63622479 31.50723285 9.5 47.25 C12.95450731 49.23475043 16.05691849 49.54588589 20 49.5625 C21.37671875 49.58763672 21.37671875 49.58763672 22.78125 49.61328125 C26.28640324 49.14492026 27.82151476 48.61530086 30.5 46.25 C31.26868063 42.98296749 31.17298932 39.7451587 31.13671875 36.40234375 C31.14709671 35.43470596 31.15747467 34.46706818 31.16816711 33.47010803 C31.19791757 30.37554571 31.19446189 27.28217995 31.1875 24.1875 C31.19637655 21.08958523 31.21226948 17.99199317 31.2389679 14.8941803 C31.25394667 12.96555503 31.25764903 11.03680392 31.24919128 9.10813904 C31.25292252 8.23706009 31.25665375 7.36598114 31.26049805 6.46850586 C31.25786201 5.31625771 31.25786201 5.31625771 31.25517273 4.14073181 C31.5 2.25 31.5 2.25 33.5 0.25 C36.625 0.625 36.625 0.625 39.5 1.25 C40.47611835 4.17835506 40.6319371 6.0823138 40.64526367 9.1328125 C40.65164352 10.12394043 40.65802338 11.11506836 40.66459656 12.13623047 C40.66570938 13.20502441 40.6668222 14.27381836 40.66796875 15.375 C40.67296135 17.02266357 40.67296135 17.02266357 40.67805481 18.70361328 C40.6831194 21.02701397 40.68546328 23.35042193 40.68530273 25.67382812 C40.68749127 29.2357982 40.70565778 32.79745966 40.72460938 36.359375 C40.72754292 38.61458227 40.72952798 40.86979102 40.73046875 43.125 C40.73765427 44.19379395 40.74483978 45.26258789 40.75224304 46.36376953 C40.74916641 47.35489746 40.74608978 48.34602539 40.74291992 49.3671875 C40.74434494 50.23972168 40.74576996 51.11225586 40.74723816 52.01123047 C40.5 54.25 40.5 54.25 38.5 57.25 C36.125 57.6875 36.125 57.6875 33.5 57.25 C31.1875 55.25 31.1875 55.25 29.5 53.25 C28.73429687 53.683125 28.73429687 53.683125 27.953125 54.125 C21.55152662 57.3939013 15.63778892 58.52217734 8.5 57.25 C2.53654652 54.50584173 -0.911583 50.15159076 -3.5 44.25 C-4.43314178 39.15516229 -4.66001956 34.14632503 -4.66796875 28.98046875 C-4.67129715 28.21825516 -4.67462555 27.45604156 -4.67805481 26.67073059 C-4.68308427 25.07321776 -4.68546438 23.47569457 -4.68530273 21.87817383 C-4.68750939 19.42707456 -4.70576102 16.97641166 -4.72460938 14.52539062 C-4.72754007 12.96875153 -4.72952703 11.41211032 -4.73046875 9.85546875 C-4.73765427 9.12216843 -4.74483978 8.3888681 -4.75224304 7.63334656 C-4.71974526 0.47197453 -4.71974526 0.47197453 0 0 Z " fill="#6CCF5E" transform="translate(68.5,18.75)"/>
<path d="M0 0 C2.70862704 1.37006135 4.78544168 2.85869226 6.75 5.1875 C7.0625 7.75 7.0625 7.75 6.75 10.1875 C4.75 12.1875 4.75 12.1875 2.37890625 12.5 C-0.76859568 12.12585415 -1.90062758 11.1950701 -4.3125 9.1875 C-9.79395682 5.32577249 -14.7360568 5.15325275 -21.25 6.1875 C-25.64745656 7.46418094 -28.36724499 9.85742563 -30.625 13.8125 C-33.71302201 21.01788469 -34.06447145 27.84728561 -31.19140625 35.15234375 C-28.86469445 40.18228919 -26.43994289 43.8942211 -21.375 46.4921875 C-15.68887437 48.35272125 -10.16988379 47.80576766 -4.5625 46 C-1.19277909 41.90169078 -1.92941505 38.32424405 -2.33203125 33.18359375 C-2.25 30.1875 -2.25 30.1875 -0.92578125 28.26953125 C0.75 27.1875 0.75 27.1875 3.375 27.4375 C5.75 28.1875 5.75 28.1875 6.75 29.1875 C6.83737645 31.04119611 6.85698153 32.89817541 6.84765625 34.75390625 C6.84443359 35.87861328 6.84121094 37.00332031 6.83789062 38.16210938 C6.82532227 39.93811523 6.82532227 39.93811523 6.8125 41.75 C6.80798828 42.93787109 6.80347656 44.12574219 6.79882812 45.34960938 C6.78699675 48.29562226 6.77051287 51.24153681 6.75 54.1875 C3.285 54.6825 3.285 54.6825 -0.25 55.1875 C-0.91 54.1975 -1.57 53.2075 -2.25 52.1875 C-3.466875 52.6825 -4.68375 53.1775 -5.9375 53.6875 C-13.06125047 55.99125604 -20.30716502 56.82620975 -27.3515625 53.8984375 C-34.95067091 49.41271043 -38.63656322 44.58778214 -41.625 36.4375 C-43.62512005 26.76072873 -41.29707229 16.84975683 -36.1875 8.5625 C-28.18374326 -2.10917565 -11.95527205 -5.16878098 0 0 Z " fill="#6DD05F" transform="translate(158.25,20.8125)"/>
<path d="M0 0 C2.375 0.75 2.375 0.75 3.375 1.75 C3.44813567 4.28049402 3.46747527 6.78304837 3.4375 9.3125 C3.43298828 10.02341797 3.42847656 10.73433594 3.42382812 11.46679688 C3.41200864 13.22790013 3.39407263 14.98896036 3.375 16.75 C4.09945313 16.02039063 4.82390625 15.29078125 5.5703125 14.5390625 C19.92521605 0.26413056 19.92521605 0.26413056 28.6875 -0.5625 C31.375 -0.25 31.375 -0.25 33.375 1.75 C33.625 4.25 33.625 4.25 33.375 6.75 C31.375 8.75 31.375 8.75 29.421875 8.8046875 C28.66390625 8.74539062 27.9059375 8.68609375 27.125 8.625 C19.44294398 8.50247917 15.1510823 13.71064568 9.81640625 18.65234375 C8.10919094 20.65964253 8.10919094 20.65964253 8.58911133 23.15869141 C9.46100839 26.03359524 10.37545497 27.22997567 12.5078125 29.30859375 C13.14976562 29.94216797 13.79171875 30.57574219 14.453125 31.22851562 C15.12859375 31.87498047 15.8040625 32.52144531 16.5 33.1875 C17.15226562 33.83009766 17.80453125 34.47269531 18.4765625 35.13476562 C22.15970226 38.73386549 25.93732508 42.15188239 29.92529297 45.41040039 C32.50334367 47.79264428 33.35258322 49.37638708 33.5625 52.875 C33.375 55.75 33.375 55.75 32.375 56.75 C27.58910886 56.75 25.23101779 56.02067692 21.8125 52.625 C20.64945552 51.34880866 19.50377716 50.05659822 18.375 48.75 C17.78976562 48.10675781 17.20453125 47.46351562 16.6015625 46.80078125 C12.375 42.06822183 12.375 42.06822183 12.375 39.75 C11.715 39.75 11.055 39.75 10.375 39.75 C8.8671875 38.21875 8.8671875 38.21875 7.25 36.25 C6.71117187 35.6003125 6.17234375 34.950625 5.6171875 34.28125 C5.20726562 33.7759375 4.79734375 33.270625 4.375 32.75 C4.35518066 33.40597168 4.33536133 34.06194336 4.31494141 34.73779297 C4.21987493 37.70061069 4.11012248 40.66270532 4 43.625 C3.95359375 45.17380859 3.95359375 45.17380859 3.90625 46.75390625 C3.86757813 47.74003906 3.82890625 48.72617188 3.7890625 49.7421875 C3.7576416 50.65339355 3.7262207 51.56459961 3.69384766 52.50341797 C3.375 54.75 3.375 54.75 1.375 56.75 C-1.1875 56.9375 -1.1875 56.9375 -3.625 56.75 C-5.28273063 55.09226937 -4.81757511 53.10186723 -4.87792969 50.81884766 C-4.90755798 49.76750641 -4.93718628 48.71616516 -4.9677124 47.63296509 C-4.99383606 46.48822723 -5.01995972 45.34348938 -5.046875 44.1640625 C-5.07477112 42.99620209 -5.10266724 41.82834167 -5.13140869 40.62509155 C-5.18792131 38.14856132 -5.24152453 35.67196329 -5.29248047 33.1953125 C-5.37450458 29.39793569 -5.47801528 25.6015169 -5.58203125 21.8046875 C-5.63414664 19.40367442 -5.68497068 17.00263289 -5.734375 14.6015625 C-5.76859558 13.46087311 -5.80281616 12.32018372 -5.83807373 11.14492798 C-5.85509338 10.08728241 -5.87211304 9.02963684 -5.88964844 7.93994141 C-5.91105896 7.00808014 -5.93246948 6.07621887 -5.95452881 5.11611938 C-5.625 2.75 -5.625 2.75 -4.27252197 0.91000366 C-2.625 -0.25 -2.625 -0.25 0 0 Z " fill="#6DD05F" transform="translate(385.625,19.25)"/>
<path d="M0 0 C2.14915785 3.22373677 2.38286803 4.26703674 2 8 C0 10 0 10 -2.25 10.4375 C-5.57408664 9.90866803 -6.95252779 8.399382 -9.390625 6.1875 C-12.11597913 4.17655909 -14.69416361 4.06121919 -18 4 C-20.40563594 4.45089819 -20.40563594 4.45089819 -22 6 C-23.25941717 8.29558468 -23.25941717 8.29558468 -23 11 C-19.44030345 15.33176126 -15.68500999 17.26058069 -10.5 19.0625 C-5.00045201 21.00639963 -0.07564227 22.8865366 3.28125 27.921875 C5.00763808 32.91338837 5.17470424 38.55742533 2.8671875 43.35546875 C-0.90427018 48.61773823 -5.49225198 52.76261129 -12 54 C-24.39677059 54.97700647 -24.39677059 54.97700647 -28.6875 52.1875 C-31.55192175 49.47791186 -32.92463017 47.92328043 -33.25 43.9375 C-33 41 -33 41 -31 39 C-27.80325755 39.20404739 -25.69410403 39.46785358 -23.125 41.4375 C-22 43 -22 43 -22 45 C-17.32009276 47.56640074 -13.03887609 47.2785208 -8 46 C-5.30861457 44.55985074 -5.30861457 44.55985074 -4 42 C-3.47112675 38.29788728 -3.2139613 36.07168141 -5.47265625 32.9921875 C-9.5853236 29.75036316 -14.43043765 28.45866399 -19.35742188 26.8203125 C-24.87180252 24.84664851 -27.81623405 22.99042678 -31 18 C-32.18468241 13.17297106 -31.51075127 9.0607911 -29.375 4.625 C-21.13813873 -4.4788993 -10.68189879 -5.0598468 0 0 Z " fill="#6DD05F" transform="translate(205,22)"/>
<path d="M0 0 C4.46064815 2.9375 4.46064815 2.9375 5.5625 4.6875 C5.25 7.875 5.25 7.875 4.5625 10.6875 C1.9375 11.5 1.9375 11.5 -1.4375 11.6875 C-2.91976093 10.46302358 -4.39898374 9.23035186 -5.79296875 7.90625 C-8.80322849 5.67536867 -11.75785464 5.80814411 -15.4375 5.6875 C-16.4275 6.0175 -17.4175 6.3475 -18.4375 6.6875 C-19.29137105 9.99317489 -19.29137105 9.99317489 -19.4375 13.6875 C-16.47741849 17.66960454 -12.64925286 18.97561022 -8.125 20.5625 C-2.20471069 22.784925 2.26075507 24.97606508 6.5625 29.6875 C8.11954628 34.41491763 8.1380309 38.96090731 6.5625 43.6875 C3.2609666 48.6398001 -0.90808703 52.36530686 -6.1875 55.125 C-12.6910899 56.25062133 -18.93661229 56.87213102 -25 54 C-27.49399106 51.63390591 -29.11946169 49.86629828 -30.4375 46.6875 C-30.125 43.875 -30.125 43.875 -29.4375 41.6875 C-27.2421875 40.94140625 -27.2421875 40.94140625 -24.4375 40.6875 C-22.0078125 42.33984375 -22.0078125 42.33984375 -19.5625 44.625 C-15.61835276 48.01424892 -15.61835276 48.01424892 -10.625 49.3125 C-5.22488478 48.35954726 -5.22488478 48.35954726 -1.0625 45.0625 C-0.10670925 41.43049513 -0.82230535 38.37866793 -1.4375 34.6875 C-2.19933594 34.37296875 -2.96117187 34.0584375 -3.74609375 33.734375 C-5.8953165 32.84356108 -8.04234323 31.9474361 -10.1875 31.046875 C-12.1398256 30.23027727 -14.09682877 29.42455341 -16.0625 28.640625 C-20.79781507 26.6889073 -24.11082243 24.74188829 -27.4375 20.6875 C-28.64393566 17.06819302 -28.76018559 14.49518995 -28.4375 10.6875 C-25.62679432 5.37838927 -22.19435868 1.96975985 -16.75 -0.5625 C-10.93400638 -1.87932874 -5.6159135 -2.14425788 0 0 Z " fill="#6CD05E" transform="translate(453.4375,20.3125)"/>
<path d="M0 0 C2.38611487 1.52271804 4.1975231 2.7611284 5.78125 5.13671875 C5.48125 9.43671875 5.48125 9.43671875 3.78125 11.13671875 C1.09375 11.51171875 1.09375 11.51171875 -2.21875 11.13671875 C-4.27154996 9.53553478 -6.27526499 7.86895539 -8.21875 6.13671875 C-13.21187076 4.43428257 -19.33471182 4.10211026 -24.3203125 5.890625 C-29.55539554 8.73093601 -31.63951858 11.30756689 -33.40625 16.88671875 C-35.3336405 25.72331418 -34.24414925 33.33780959 -29.40625 41.01171875 C-25.07870678 45.21561788 -21.28723536 46.36985684 -15.34375 46.69921875 C-7.90846416 46.54200499 -4.24963361 43.16760236 0.78125 38.13671875 C2.10125 38.13671875 3.42125 38.13671875 4.78125 38.13671875 C5.14140986 41.28811749 4.94108345 42.85874753 3.34375 45.63671875 C-3.65064121 52.46051505 -11.00702591 54.56438834 -20.53125 54.4765625 C-27.48306541 53.83587612 -32.82051561 50.93865619 -37.65625 45.94921875 C-42.65700598 39.37598709 -43.92469958 31.32809715 -43.6953125 23.2265625 C-42.3496456 14.50178774 -37.29371333 6.38447048 -30.21875 1.13671875 C-21.37457948 -4.7888755 -9.33753807 -4.96492229 0 0 Z " fill="#6DD05F" transform="translate(368.21875,21.86328125)"/>
</svg>
