<svg xmlns:dc="http://purl.org/dc/elements/1.1/" xmlns:cc="http://creativecommons.org/ns#" xmlns:rdf="http://www.w3.org/1999/02/22-rdf-syntax-ns#" xmlns:svg="http://www.w3.org/2000/svg" xmlns="http://www.w3.org/2000/svg" viewBox="0 0 2725.1201 2725.1201" height="2725.1201" width="2725.1201" xml:space="preserve" id="svg2" version="1.1"><metadata id="metadata8"><rdf:rdf><cc:work rdf:about=""><dc:format>image/svg+xml</dc:format><dc:type rdf:resource="http://purl.org/dc/dcmitype/StillImage"></dc:type></cc:work></rdf:rdf></metadata><defs id="defs6"></defs><g transform="matrix(1.3333333,0,0,-1.3333333,0,2725.12)" id="g10"><g transform="scale(0.1)" id="g12"><g transform="scale(1.25387)" id="g14"></g><path id="path18" style="fill:#75b613;fill-opacity:1;fill-rule:nonzero;stroke:none" d="m 14903.4,8562 c -54.3,183.4 -342.2,300.8 -346.4,294.6 -147.8,60.3 -564.8,178.9 -770.5,181 14.6,-60.8 23.3,-122.9 24,-186.3 0.6,-53.8 -5.1,-108.1 -17.7,-160.7 -7.2,2.8 -23.1,-50.1 -36.5,-74.3 -43.9,-104.5 -213.1,-280.8 -265.4,-316.3 -4,-2.7 -8.1,-5.3 -12.1,-8 38.1,-155.4 36.9,-329.7 -43.5,-466 -53.1,-90.1 -154,-176.5 -264.5,-167.7 -130.8,10.4 -171.6,166.2 -229,261.7 -27.2,45.3 -56.3,89 -86.9,131.5 -160.4,-31.2 -327.4,-44.9 -492.3,-35.8 0.6,2.2 -275.4,14.9 -481.2,103.2 -0.3,0.1 -0.6,0.2 -0.9,0.3 -31.8,-46.3 -66.2,-91 -102.7,-133.9 16.6,-92.5 25.1,-186.5 25.8,-276.8 0.9,-97 -9.8,-197.2 -51.6,-285.7 -36.5,-77 -115,-153 -206.1,-146.8 -115.3,7.9 -215.4,103.5 -294.4,178.8 -54.5,52 -106.4,106.8 -156.8,162.9 -111.6,-34 -225.3,-58.9 -340.8,-75.7 1.2,2.7 2.5,5.4 3.8,8 -144.9,-9.5 -470.7,-31.3 -614.5,-11.3 -37,5.2 -73.9,11.3 -110.6,18.5 -20.3,3.9 -40.6,8.2 -60.82,13 7.8,-24.2 14.59,-48.8 20.3,-73.5 21.12,-91.5 26.32,-186.1 3.02,-278.8 -27.22,-108.3 -101.61,-229.2 -202.11,-283.6 -113.16,-61.2 -219.63,-6.3 -294.05,85.3 l -92.78,109.7 c -37.61,35.3 -78.78,66.3 -119.64,97.6 -10.23,7.8 -20.51,15.8 -30.76,23.8 -48.27,-15.9 -389.69,-92.2 -418,-96.8 -108.7,-17.8 -218.09,-32.3 -326.99,-47.9 4.3,-33.9 6.65,-68 6.96,-101.7 0.24,-26 -0.42,-53.3 -2.16,-81.3 -7.97,-127.6 -39.4,-269.7 -121.27,-362.1 -54.18,-61.1 -130.75,-66.8 -201.57,-28.7 -43.2,23.1 -71.65,61.9 -100.47,100.1 -30.53,40.5 -67.88,83.6 -111.79,121.7 -8.41,7.3 -17.17,14 -26.16,20.4 -257.46,-206.1 -580.38,-307.4 -908.38,-309.2 -1.46,-48.4 -7.64,-97.7 -21.62,-143.4 -16.7,-54.5 -44.67,-103.9 -89.38,-140.7 -145.74,-65.1 -226.58,-5.1 -253.25,21.4 -55.52,55.2 -109.21,111.6 -169.13,162.2 -52.71,44.5 -108.97,84.5 -167.41,121.1 -30,18.8 -60.54,36.7 -91.54,53.8 -327.41,-190.9 -703.18,-317.2 -1082.27,-289.6 0.61,1 1.22,2.1 1.83,3.1 -8.36,1.6 -185.41,22.5 -193.77,24.3 -175.34,38 -342.53,111.8 -493.32,211.7 -157.26,-58.6 -295,-159.4 -421.87,-257.9 -56.62,-44 -232.95,-203.7 -391.7,-48.2 -34.38,50.6 -52.86,116 -62.89,171.2 -5.53,30.5 -9.23,61 -11.5,91.6 26.19,219.3 133.4,603.4 288.62,763 -46.62,110.4 -80.42,224.3 -103.01,340.4 -243.26,-181 -480.13,-370.6 -698.14,-581.9 -58.48,-56.6 -115.72,-114.9 -171.75,-174.5 -82.41,-87.8 -213.91,-234.6 -339.52,-380.8 -69.38,-23.3 -462.33,-706.2 -554.87,-883.5 -279.65,-535.6 -419.86,-1118.6 -407.21,-1720 20.41,8.9 40.9,17.7 61.33,26.6 16.61,36.3 17.8,35.2 0,0 127.58,54.1 437.57,185.1 566.34,236.3 563.47,224 1152.76,441.6 1759.11,511.8 103.68,12 158.29,-7 262.38,-2.8 17.18,0.7 83.88,19.4 98.87,29.4 0,0 83.92,381.7 143.4,456.6 8.75,11 156.2,65.8 159.5,78.2 45.15,12.3 93.38,13.8 139.83,4.1 87,-18.2 138.41,-88.8 169.44,-167.2 39.88,-100.7 52.41,-211.3 72.14,-317.1 5.12,-27.5 10.67,-54.9 16.13,-82.3 0.56,-2.8 1.21,-5.8 3.29,-7.7 2.65,-2.5 6.72,-2.5 10.36,-2.3 255.79,12.1 513.17,57.9 767.12,90.1 49.55,6.2 102.39,12.4 149.56,29.9 1.76,0.6 6.13,2 10.5,3.4 -0.29,1.2 -0.59,2.5 -0.92,3.9 -23.3,95.9 -23.07,206.5 -22.04,304.4 2.29,218 44.74,443.3 187.66,614.6 128.47,153.9 381.84,282.9 696.94,336.4 160.09,14.5 321.91,-2.2 466.19,-50.2 351.89,-117.2 650.47,-337.7 858.46,-644.8 19.53,-28.8 37.95,-58.3 56.3,-87.9 12.73,13.4 25.69,26.6 39.19,39.2 40.17,37.6 83.8,72.1 129.68,102.5 17.91,11.9 195.38,83.2 214.31,93.7 0.47,2.5 1.13,5.2 1.67,7.8 19.2,5.9 38.52,11.3 57.98,15.7 162.39,36.8 331.61,26.4 492.13,-14.7 58.43,-15 115.66,-34.3 171.67,-56.7 23.36,-9.3 46.46,-19.2 69.62,-29 2.53,-1 6.3,-2.4 6.39,-2.6 1.47,-0.6 2.96,-1.2 3.84,-1.6 8.93,0.6 21.71,1.1 28.24,1.3 16.22,0.6 32.45,1.2 48.68,1.8 39.55,1.5 79.1,2.8 118.64,4.2 92.98,3.3 185.95,6.9 278.87,11.6 134.17,6.8 591.37,40.2 590.27,46.6 319.7,34.9 637.3,86.7 950.7,161.4 235.9,56.2 520.4,122.1 748,205.1 l 37.8,25.4 c 352.2,137.8 725.2,335 1039.3,548.1 376.4,255.2 821.4,712.2 1101,1065.6 -0.3,1.3 -0.5,2.7 -0.7,4.1 157.2,216.2 296.1,446.4 415.2,687.8 71,143.8 165.5,307.9 116.8,472.8" data-index="1"></path><path id="path20" style="fill:#25b633;fill-opacity:1;fill-rule:nonzero;stroke:none" d="m 4871.55,14887 c -450.03,-175.8 -878.93,-477.1 -1141.15,-886.9 -180.75,-282.5 -259.84,-601.2 -349.43,-920.1 -42.33,-150.6 -91.04,-298.4 -149.95,-443.4 -54.96,-135.2 -112.99,-269.7 -159.11,-408.3 -175,-525.9 140.72,-1087.2 518.53,-1443.1 77.56,-73 161.43,-139.6 249.54,-200.5 65.1,-45 132.44,-87 201.6,-125.7 2.03,-1.1 4.28,-2.4 6.56,-3.6 41.23,-22.7 121.06,-62.9 133.49,-69.7 66.16,-32.3 133.34,-62.2 201.02,-89.4 302.19,-121.9 622.96,-203.6 946.23,-244 28.72,-3.6 57.49,-6.7 86.29,-9.7 98.75,-9.9 197.89,-15.9 297.04,-17.8 197.85,-3.8 395.75,8.8 590.73,39.2 277.11,43.2 548.31,122.3 805.06,241 111.85,51.7 220.63,110.1 325.24,175.2 12.61,7.8 558.87,287.5 777.46,925.5 61.99,181 119.59,367.7 144.86,555.5 61.12,454.2 -13.68,914.4 -168.86,1344.2 0,0 -97.41,264 -157.7,389.3 -28.07,58.3 -58.21,115.6 -90.62,171.6 -29.84,51.6 -59.74,110.5 -98.63,155.9 -3.74,4.3 -7.04,9 -9.81,14 -65.01,92.4 -140.53,175.6 -219.54,256.1 -219.58,223.7 -461.49,416.6 -744.85,553.8 -487.69,236.2 -1041,270 -1565.27,166.2 -0.87,-0.2 -1.71,-0.5 -2.6,-0.6 -2.67,-0.5 -172.87,-34.3 -284.54,-72.1 -26.25,-8.9 -96.12,-36.9 -141.59,-52.6" data-index="2"></path><path id="path22" style="fill:#25b633;fill-opacity:1;fill-rule:nonzero;stroke:none" d="m 6252.6,7277.3 c 18.98,7.3 38.5,13.8 58.48,19.2 100.5,27.3 209.43,30 309.14,-0.1 53.76,259.6 46.84,529 -21.13,785.9 -28.56,108 -66.63,213.3 -117.78,312.7 -22,42.7 -46.13,84.4 -73.05,124.2 -5.92,8.8 -10.76,15.9 -15.12,22.1 -70.61,-66.3 -147.19,-126.5 -228.4,-179.1 -44.14,-28.6 -89.61,-55 -136.24,-78.9 -87.26,-44.7 -179.96,-83.4 -274.82,-109.8 -10.32,-2.9 -20.66,-5.8 -31.04,-8.4 -62.2,-15.4 -127.37,-21.4 -190.91,-28.5 -160.59,-18.2 -630.02,-48.6 -1033.78,176.2 -171.36,95.4 -335.01,218.5 -462.64,369.2 -64.74,-221.7 -107.97,-450 -114.71,-680.1 -2.81,-95.8 0.65,-191.8 11.58,-287.9 27.54,-242 109.02,-475 246.02,-680.1 200.92,-300.7 527.69,-532.1 886.07,-596.3 367.6,-65.7 735.84,48.4 1055.72,226.2 -68.51,121.5 -119.37,265.1 -79.28,402 31.76,108.4 113.49,173.5 211.89,211.5" data-index="3"></path><path id="path24" style="fill:#138f1e;fill-opacity:1;fill-rule:nonzero;stroke:none" d="m 6599.09,8082.3 c -28.56,108 -66.63,213.3 -117.78,312.7 -22,42.7 -46.13,84.4 -73.05,124.2 -5.92,8.8 -10.76,15.9 -15.12,22.1 -70.61,-66.3 -147.19,-126.5 -228.4,-179.1 -44.14,-28.6 -89.61,-55 -136.24,-78.9 -87.26,-44.7 -179.96,-83.4 -274.81,-109.8 -10.33,-2.9 -20.67,-5.8 -31.05,-8.4 -62.2,-15.4 -127.37,-21.4 -190.91,-28.5 -160.59,-18.2 -630.02,-48.6 -1033.78,176.2 -171.36,95.4 -335.01,218.5 -462.64,369.2 -14.01,-48 -26.94,-96.3 -38.79,-144.8 105.03,-189.9 294.83,-320.8 494.08,-422.9 400.39,-205 886.19,-260 1318.69,-205 452.63,57.6 463.37,346.6 554.49,309.5 208.9,-85 202.22,-649.4 94.67,-901 54.76,1 109.53,-5.7 161.77,-21.4 53.76,259.6 46.84,529 -21.13,785.9" data-index="4"></path><path id="path26" style="fill:#25b633;fill-opacity:1;fill-rule:nonzero;stroke:none" d="m 6763.4,9054.6 c -60.81,-129.9 -137.02,-251.5 -229.81,-363.8 -6.28,-7.6 -12.63,-15.1 -19.05,-22.6 123.91,-155 202.53,-351.1 252.41,-539.6 36.82,-139.1 57.12,-281.8 61.48,-424.9 5.12,-167.7 -11.71,-335.9 -50.62,-499.8 16.23,-17.1 31.24,-35.4 45.51,-53.7 115.66,-147.9 186.04,-325.8 211.85,-510.8 270.03,0.4 541.06,72.3 760.51,231.4 -3.36,2.5 -6.7,5.1 -9.98,7.8 -56.95,46.5 -107,104.3 -142.59,168.8 -64.21,116.4 -86.12,258.3 -39.43,384.8 1.08,3 2.29,5.8 3.59,8.6 1.44,4.1 3.08,8.1 5.19,12.2 56.31,109.8 154.74,183.6 278.19,197.8 113.36,13.1 234.19,-21.7 334.62,-80.8 0.51,-0.3 1.03,-0.6 1.54,-0.8 0.93,3.8 1.79,7.7 2.7,11.5 18.83,80 32.04,161.3 39.29,243.2 11.82,133.4 7.89,268.2 -13.48,400.4 -58.55,362.4 -242.05,724.5 -570.16,911 -290.16,164.9 -683.65,178.8 -921.76,-80.7" data-index="5"></path><path id="path28" style="fill:#138f1e;fill-opacity:1;fill-rule:nonzero;stroke:none" d="m 8255.32,8224.3 c -35.15,217.6 -115.42,435 -244.91,614.4 -99.51,-393.8 -488.85,-691.2 -917.24,-567.7 -226.31,61 -313.35,269.9 -470.03,409.1 -14.74,14.8 -32.26,37.8 -54.12,55.1 -11.54,-14.9 -23.33,-29.8 -35.43,-44.4 -6.28,-7.6 -12.63,-15.1 -19.05,-22.6 123.91,-155 202.53,-351.1 252.41,-539.6 36.82,-139.1 57.12,-281.8 61.48,-424.9 5.12,-167.7 -11.71,-335.9 -50.62,-499.8 16.23,-17.1 31.24,-35.4 45.51,-53.7 115.66,-147.9 186.04,-325.8 211.85,-510.8 270.03,0.4 541.06,72.3 760.51,231.4 -3.36,2.5 -6.7,5.1 -9.98,7.8 -56.95,46.4 -107,104.3 -142.59,168.8 -64.21,116.4 -86.12,258.3 -39.43,384.8 1.08,3 2.29,5.8 3.59,8.6 1.44,4.1 3.08,8.1 5.19,12.2 56.31,109.8 154.74,183.6 278.19,197.8 113.36,13.1 234.19,-21.7 334.62,-80.8 0.51,-0.3 1.03,-0.6 1.54,-0.9 0.93,3.9 1.79,7.8 2.7,11.6 18.83,80 32.04,161.3 39.29,243.2 11.82,133.4 7.89,268.2 -13.48,400.4" data-index="6"></path><path id="path30" style="fill:#25b633;fill-opacity:1;fill-rule:nonzero;stroke:none" d="m 4469.17,8520.7 c 315.08,-218.1 729.42,-283.9 1110.16,-207.3 188.72,38 369.19,111 525.21,217.9 56.4,38.6 110.02,81.6 160.5,128.1 92.13,84.8 173.64,181.6 241.39,286.2 206.97,319.7 260.99,697.5 325.92,1065.7 -12.79,-4.2 -25.66,-8.4 -38.87,-12.6 -99.62,-31.8 -200.86,-57.1 -302.75,-78.2 -160.67,-33.3 -323.48,-54.4 -487.04,-64.3 -159.02,-9.5 -318.76,-8.5 -477.95,2.5 -242.57,16.8 -483.88,56.5 -719.43,116.4 -206.93,52.7 -432.3,117.9 -606.57,210.5 -2.06,1.1 -43.36,22.7 -95.69,50.2 -230.42,-299.8 -254.28,-684.5 -139.19,-1029.7 91.52,-274.4 270.88,-523.8 504.31,-685.4" data-index="7"></path><path id="path32" style="fill:#138f1e;fill-opacity:1;fill-rule:nonzero;stroke:none" d="m 6793.48,9998.7 c -99.62,-31.8 -200.86,-57.1 -302.75,-78.2 -160.67,-33.3 -323.48,-54.4 -487.04,-64.3 -159.02,-9.5 -318.76,-8.5 -477.95,2.5 -242.57,16.8 -483.88,56.5 -719.43,116.4 -206.93,52.7 -432.3,117.9 -606.57,210.5 -2.06,1.1 -43.36,22.7 -95.69,50.2 -15.83,-20.6 -30.6,-41.6 -44.5,-63 333.91,-209.3 714.76,-357.2 1109.98,-404.6 426.51,-61 848.67,-107.7 1297.31,-24.7 337.19,62.4 -65.66,-689.1 -283.26,-898 -318.81,-312.7 -797.85,-473.9 -1238.76,-527.9 207.02,-45.3 425.8,-46.2 634.51,-4.2 188.72,38 369.19,111 525.21,217.9 56.4,38.6 110.02,81.6 160.5,128.1 92.13,84.8 173.64,181.6 241.39,286.2 206.97,319.7 260.99,697.5 325.92,1065.7 -12.79,-4.2 -25.66,-8.4 -38.87,-12.6" data-index="8"></path><path id="path34" style="fill:#f1c33a;fill-opacity:1;fill-rule:nonzero;stroke:none" d="m 4469.17,8520.7 c 315.08,-218.1 729.42,-283.9 1110.16,-207.3 188.72,38 369.19,111 525.21,217.9 56.4,38.6 110.02,81.6 160.5,128.1 19.53,18 38.48,36.6 57.03,55.6 138.15,494.9 118.98,854.9 -224.7,1148.3 -31.2,-2.8 -62.42,-5.2 -93.68,-7.1 -159.02,-9.5 -318.76,-8.5 -477.95,2.5 -242.57,16.8 -483.88,56.5 -719.43,116.4 -206.93,52.7 -432.3,117.9 -606.57,210.5 -2.06,1.1 -43.36,22.7 -95.69,50.2 -230.42,-299.8 -254.28,-684.5 -139.19,-1029.7 91.52,-274.4 270.88,-523.8 504.31,-685.4" data-index="9"></path><path id="path36" style="fill:#25b633;fill-opacity:1;fill-rule:nonzero;stroke:none" d="m 10104.1,9061.9 c 72.8,-150.1 105.9,-312.4 106.6,-476.1 1,-217.5 -55,-437.6 -151.4,-635.2 -32.9,-67.4 -70.38,-132.2 -111.98,-193.4 6.9,-2.2 13.84,-4.3 20.85,-6.3 47.63,-13.2 95.03,-23.6 142.23,-31.8 44.9,-7.8 89.6,-13.6 133.9,-17.7 244.1,-22.5 488.5,-0.8 724.2,61.3 -7.6,9 -15.3,18 -22.9,27 -53.7,63.1 -100.5,125.1 -127,204.8 -22.6,68.1 -27,141 -16.8,211.7 19.4,135.2 122.1,259.6 238.9,325.5 6.8,3.8 13.5,6.5 20.1,8.5 0.2,0 0.4,0.2 0.7,0.2 251.4,80.8 545.7,-42.7 643.7,-292.9 6.4,-16.5 12.5,-33.4 18.3,-50.4 46.7,65.6 87.3,135.1 120,207.5 29.8,65.8 53.1,134 68.5,203.9 14.1,64 21.5,129.4 21.3,195.6 -0.1,62.3 -7,125.2 -21.6,188.4 -54.3,235 -189.4,469.2 -394.1,588.4 -206.7,120.3 -417.8,167 -493.1,174.4 -425.3,41.4 -918,-16.3 -1243.99,-316.4 137,-96.3 250.39,-226 323.59,-377" data-index="10"></path><path id="path38" style="fill:#138f1e;fill-opacity:1;fill-rule:nonzero;stroke:none" d="m 11911.7,8992.5 c -32.3,139.6 -93,278.9 -180,394 -300.8,-447.7 -980.7,-567 -1435.4,-297.3 -170.6,100.9 -244.6,312.2 -406.49,437.1 -38.09,-26.5 -74.69,-55.5 -109.3,-87.4 137,-96.3 250.39,-226 323.59,-377 72.8,-150.1 105.9,-312.4 106.6,-476.1 1,-217.5 -55,-437.6 -151.4,-635.2 -32.9,-67.4 -70.38,-132.2 -111.98,-193.4 6.9,-2.2 13.84,-4.3 20.85,-6.3 47.63,-13.2 95.03,-23.6 142.23,-31.8 44.9,-7.8 89.6,-13.6 133.9,-17.7 244.1,-22.5 488.5,-0.8 724.2,61.3 -7.6,9 -15.3,18 -22.9,27 -53.7,63.1 -100.5,125.1 -127,204.8 -22.6,68.1 -27,141 -16.8,211.7 19.4,135.2 122.1,259.6 238.9,325.5 6.8,3.8 13.5,6.5 20.1,8.5 0.2,0 0.4,0.2 0.7,0.2 251.4,80.8 545.7,-42.7 643.7,-292.9 6.4,-16.5 12.5,-33.4 18.3,-50.4 46.7,65.6 87.3,135.1 120,207.5 29.8,65.8 53.1,134 68.5,203.9 14.1,64 21.5,129.4 21.3,195.6 -0.1,62.3 -7,125.2 -21.6,188.4" data-index="11"></path><path id="path40" style="fill:#25b633;fill-opacity:1;fill-rule:nonzero;stroke:none" d="m 8237.5,8806.3 c 120.87,-214.8 188.5,-456.8 206.42,-702.9 10.94,-150.3 3.38,-302.2 -22,-450.4 -12.03,-70.2 -28,-139.7 -47.94,-207.7 41.7,-50.8 73.27,-108.9 96.15,-170.6 134.19,19.2 269.12,36.7 402.5,61 79.28,14.5 158,31.4 235.7,52.6 -19.3,24 -36.47,49.7 -50.4,77.7 -139.52,281.1 47.98,650.2 378.52,636.1 120.97,-5.2 227.65,-66 312.34,-149.8 25.14,-24.8 48.14,-51.3 69.29,-79 1.37,2 2.67,4.2 4.03,6.2 51.84,79.3 96.02,165.7 130.58,256.1 17.28,45.2 32.1,91.4 44.33,138.2 81.98,313.4 45.58,654 -181.28,903.7 -251.59,276.9 -656.83,336 -1012.59,307.2 -294.43,-23.8 -582.06,-179.6 -814.28,-362.2 98.18,-91.4 182.51,-198.7 248.63,-316.2" data-index="12"></path><path id="path42" style="fill:#25b633;fill-opacity:1;fill-rule:nonzero;stroke:none" d="m 12730.7,8207.2 c -3.5,4.1 -7,8.2 -10.6,12.2 -81.4,91.9 -159.4,195.5 -144.2,325.5 10.5,90.4 69.5,150.9 137,205.5 77.8,62.8 167.6,120.6 270.6,123.9 12.7,0.4 38.2,-4.7 48.1,-8.4 195.7,-58 310.7,-230.2 388.2,-405 22.2,16.2 43.7,33.1 64.2,51.2 68,59.9 116.6,129.7 139.2,216.8 1.4,5.6 2.8,11.2 4,16.9 19.5,90.8 8.1,186.9 -16,275.8 -46.6,171.7 -147,341.5 -259.8,478.4 -106.8,129.6 -240.2,239.2 -398,300.6 -105,40.9 -217,64.1 -327.9,82.8 -132.8,22.3 -279.3,35.9 -424.4,37.6 -227.4,2.6 -488.2,-19.7 -685.6,-134 72.7,-40.9 141.2,-90.3 205.1,-147.9 174.9,-157.7 300.5,-365.9 356.1,-593.4 12.2,-50.3 21.2,-101.5 26.4,-153.2 16.6,-165 -9.5,-325.1 -65.5,-475.2 -18.8,-50.5 -41.1,-99.9 -66.3,-147.9 78.5,-29.8 160.6,-50 243.9,-62.8 73.2,-11.2 147.2,-16.7 220.5,-17.9 98.7,-1.6 197.4,4.7 295,18.5" data-index="13"></path><path id="path44" style="fill:#138f1e;fill-opacity:1;fill-rule:nonzero;stroke:none" d="m 12080.7,9420 c -153.9,129.6 -270.2,319.5 -447,422.4 -41.2,-15.5 -80.8,-33.8 -118.2,-55.4 72.7,-40.9 141.2,-90.3 205.1,-147.9 174.9,-157.7 300.5,-365.9 356.1,-593.4 12.2,-50.3 21.2,-101.5 26.4,-153.2 16.6,-165 -9.5,-325.1 -65.5,-475.2 -18.8,-50.5 -41.1,-99.9 -66.2,-147.9 78.4,-29.8 160.5,-50 243.8,-62.8 73.2,-11.2 147.2,-16.7 220.5,-17.9 98.7,-1.6 197.4,4.7 295,18.5 -3.5,4.1 -7,8.2 -10.6,12.2 -81.4,91.9 -159.4,195.5 -144.2,325.5 10.5,90.4 69.5,150.9 137,205.5 77.8,62.8 167.6,120.6 270.6,123.9 12.7,0.4 38.2,-4.7 48.1,-8.4 195.7,-58 310.7,-230.2 388.2,-405 22.2,16.2 43.7,33.1 64.2,51.2 68,59.9 116.6,129.7 139.2,216.8 1.4,5.6 2.8,11.2 4,16.9 19.5,90.8 8.1,186.9 -16,275.8 -32.6,120.1 -91.6,239.3 -162.7,346.9 -46.8,-14.4 -94.7,-25.4 -140.5,-35.6 -417.8,-95.7 -879.1,-208.9 -1227.3,87.1" data-index="14"></path><path id="path46" style="fill:#197359;fill-opacity:1;fill-rule:nonzero;stroke:none" d="m 5844.51,9392.9 c -43.62,14.4 -102.31,-26.2 -137.65,-45.7 -111.17,-61.2 -206.42,-146.5 -283.65,-247.2 -28.13,-36.7 -58.07,-86.2 -63.63,-129 -5.52,-42.6 13.06,-78.5 81.51,-88.6 54.75,-8.1 112.27,-1.7 166.55,7.1 89.09,14.5 174.49,50.8 246.61,105.1 48.77,36.8 115.67,82.8 121.44,149.1 4.69,53.9 -20.94,108.5 -46.57,154.3 -17.61,31.4 -48.24,82.9 -84.61,94.9" data-index="15"></path><path id="path48" style="fill:#000000;fill-opacity:1;fill-rule:nonzero;stroke:none" d="m 5975.69,9143.7 c -5.77,-66.3 -72.67,-112.3 -121.44,-149.1 -72.12,-54.3 -157.52,-90.6 -246.61,-105.1 -54.28,-8.8 -111.8,-15.2 -166.55,-7.1 -68.45,10.1 -87.03,46 -81.51,88.6 5.56,42.8 35.5,92.3 63.63,129 77.23,100.7 172.48,186 283.65,247.2 35.34,19.5 94.03,60.1 137.65,45.7 36.37,-12 67,-63.5 84.61,-94.9 25.63,-45.8 51.26,-100.4 46.57,-154.3 z m -138.64,425.8 c -5.91,1.1 -11.84,1.7 -17.72,1.8 -8.94,0.9 -18.48,0.4 -28.56,-1.8 -151.34,-32.2 -300.53,-143.4 -411.29,-246.2 -120.57,-112 -246.04,-285.9 -183.47,-459.1 49.53,-137 237.05,-165.6 363.16,-157.3 102.14,6.6 199.9,35.1 290.96,81.6 53,27.1 101.53,61.3 147.72,98.7 45.2,36.5 97.64,79.9 126,131.4 56.22,102 18.9,240.4 -29.22,337.6 -54.35,109.8 -133.19,190.2 -257.58,213.3" data-index="16"></path><path id="path50" style="fill:#f1c33a;fill-opacity:1;fill-rule:nonzero;stroke:none" d="m 7365.02,8281.7 c -185.41,-39.4 -388,-336.4 -536.59,-578 5.12,-167.7 -11.71,-335.9 -50.62,-499.8 16.23,-17.1 31.24,-35.4 45.51,-53.7 115.66,-147.9 186.04,-325.8 211.86,-510.8 270.02,0.4 541.05,72.3 760.5,231.4 -3.36,2.5 -6.7,5.1 -9.98,7.8 -56.95,46.5 -107,104.3 -142.59,168.8 -64.21,116.4 -86.12,258.3 -39.43,384.8 1.08,3 2.29,5.8 3.59,8.6 1.44,4.1 3.08,8.1 5.18,12.2 56.32,109.8 154.75,183.6 278.2,197.8 113.93,13.1 235.43,-22 336.16,-81.6 20.32,83.6 34.39,168.9 41.99,254.7 -361.72,400.7 -712.04,498.5 -903.78,457.8" data-index="17"></path><path id="path52" style="fill:#f1c33a;fill-opacity:1;fill-rule:nonzero;stroke:none" d="m 6252.6,7277.3 c -91.12,345.7 -252.62,663.5 -498.92,896.2 -10.33,-2.9 -20.66,-5.8 -31.04,-8.4 -62.2,-15.4 -127.37,-21.4 -190.91,-28.5 -160.59,-18.2 -630.02,-48.6 -1033.78,176.2 -171.36,95.4 -335.01,218.5 -462.64,369.2 -64.74,-221.7 -107.97,-450 -114.71,-680.1 -2.81,-95.8 0.65,-191.8 11.58,-287.9 27.54,-242 109.02,-475 246.02,-680.1 200.92,-300.7 527.69,-532.1 886.07,-596.3 367.6,-65.7 735.84,48.4 1055.72,226.2 -68.51,121.5 -119.37,265.1 -79.28,402 31.76,108.4 113.49,173.5 211.89,211.5" data-index="18"></path><path id="path54" style="fill:#f1c33a;fill-opacity:1;fill-rule:nonzero;stroke:none" d="m 9947.32,7757.2 c 6.9,-2.2 13.84,-4.3 20.85,-6.3 47.63,-13.2 95.03,-23.6 142.23,-31.8 44.9,-7.8 89.6,-13.6 133.9,-17.7 244.1,-22.5 488.5,-0.8 724.2,61.3 -7.6,9 -15.3,18 -22.9,27 -53.7,63.1 -100.5,125.1 -127,204.8 -22.6,68.1 -27,141 -16.8,211.7 19.4,135.2 122.1,259.6 238.9,325.5 6.8,3.8 13.5,6.5 20.1,8.5 0.2,0 0.4,0.2 0.7,0.2 251.4,80.8 545.7,-42.7 643.7,-292.9 6.4,-16.5 12.5,-33.4 18.3,-50.4 89.2,125.2 156.2,264.7 188.5,411.4 -48.4,60.9 -102.2,117.4 -160.6,168.3 -699.5,610.4 -1209.3,235.1 -1540.7,-191 1,-217.5 -55,-437.6 -151.4,-635.2 -32.9,-67.4 -70.38,-132.2 -111.98,-193.4" data-index="19"></path><path id="path56" style="fill:#f1c33a;fill-opacity:1;fill-rule:nonzero;stroke:none" d="m 13173,9269.7 c -94.1,67.6 -688.2,314.8 -1096.3,-224 12.2,-50.3 21.2,-101.5 26.4,-153.2 16.6,-165 -9.5,-325.1 -65.5,-475.2 -18.8,-50.5 -41.1,-99.9 -66.3,-147.9 78.5,-29.8 160.6,-50 243.9,-62.8 73.2,-11.2 147.2,-16.7 220.5,-17.9 98.7,-1.6 197.4,4.7 295,18.5 -3.5,4.1 -7,8.2 -10.6,12.2 -81.4,91.9 -159.4,195.5 -144.2,325.5 10.5,90.4 69.5,150.9 137,205.5 77.8,62.8 167.6,120.6 270.6,123.9 12.7,0.4 38.2,-4.7 48.1,-8.4 195.7,-58 310.7,-230.2 388.2,-405 22.2,16.2 43.7,33.1 64.2,51.2 68,59.9 116.6,129.7 139.2,216.8 -66.2,316.1 -386.9,495.3 -450.2,540.8" data-index="20"></path><g transform="scale(1.0282)" id="g58"><path id="path60" style="fill:#25b633;fill-opacity:1;fill-rule:nonzero;stroke:none" d="m 7095.63,14386.5 c -3.27,34 -7.01,68 -11.36,101.8 -28.98,225.5 -84.28,449.3 -169.31,660.3 -166.67,413.5 -489.58,788.9 -903.96,966.7 -257.45,110.5 -719.28,184.7 -804.86,-180.4 -42,-179.3 104.44,-278 266.55,-288.8 143.54,-9.5 286.01,17.3 429.24,-4.7 227.86,-35.1 394.46,-218.6 529.06,-391.8 164.52,-211.8 300.21,-448.8 388.35,-702.6 94.6,-47.8 186.88,-101.3 276.29,-160.5" data-index="21"></path></g><path id="path62" style="fill:#25b633;fill-opacity:1;fill-rule:nonzero;stroke:none" d="m 4303.4,14838 c 7.24,-7.1 15.48,-13.6 22.49,-20.9 0.56,-0.3 1.07,-0.6 1.75,-1 2.33,-1.2 4.44,-2.6 6.56,-4 24.47,14.7 49.22,29 74.25,42.7 3.92,2.1 8.13,4.3 12.49,6.6 -13.89,39.1 -28.5,77.9 -44.14,116.3 -78.67,193.1 -188.02,376.1 -337.04,523.2 -159.56,157.4 -359.68,266.7 -573.18,331.9 -227.57,69.6 -484.46,99.7 -707.12,-2.9 -202.41,-93.2 -375.48,-267.3 -435.53,-485.8 -26.41,-96.2 -23.11,-192.3 14.04,-283.9 26.75,-66 69.35,-122.5 127.57,-173.2 3.35,-3 15.85,-12.8 16.44,-13.6 61.88,-45.1 125.59,-51.2 193.75,-10.5 86.64,51.6 159.82,131.9 228.74,204.2 60.02,63.1 118.6,127.6 181.93,187.4 57.33,54.1 120.11,108.3 192.37,141.3 83.51,38.1 163.47,38.4 252.17,16.4 201,-49.9 374.98,-186.7 524.24,-324.5 63.95,-59.1 124.63,-121.5 184.78,-184.3 20.98,-22 41.79,-44.1 63.44,-65.4" data-index="22"></path><path id="path64" style="fill:#197359;fill-opacity:1;fill-rule:nonzero;stroke:none" d="m 3769.11,6504.1 c 0.53,-61.5 5.07,-145.3 36.24,-199.5 27.34,-47.6 70.15,3.5 101.1,26 58.32,42.3 114.91,87 172.9,129.9 39.87,29.4 81.45,56.9 123.85,82.5 12.41,7.5 114.53,74.1 123.16,66.7 -134.51,115.2 -250.35,251.9 -339.54,401.3 -5.92,10 -11.69,19.9 -17.36,29.9 -88.52,-104.3 -151.99,-226 -182.27,-362.1 -13.1,-58.9 -18.62,-110.3 -18.08,-174.7" data-index="23"></path><path id="path66" style="fill:#197359;fill-opacity:1;fill-rule:nonzero;stroke:none" d="m 11355.3,8367.9 c -69.4,26.8 -142,39.6 -213.8,13.3 -84.5,-30.9 -141.5,-115.9 -169,-202 -67,-210.1 521.6,-772.2 600.9,-712.6 24.2,18.2 33.7,49.7 39.8,79.3 3.6,17.1 6.5,34.3 9,51.5 22.5,159.7 -0.6,323.1 -44,477.3 -36.2,128.8 -90.9,242 -222.9,293.2" data-index="24"></path><path id="path68" style="fill:#197359;fill-opacity:1;fill-rule:nonzero;stroke:none" d="m 3725.39,9637 c -61.36,-51.6 -111.92,-116.9 -152.81,-184.9 -55.53,-92.3 -93.13,-192.1 -119.19,-295.7 -8.01,-31.8 -14.97,-64 -20.97,-96.4 -5.23,-28.3 -10.39,-56.8 -13.75,-85.4 122.27,77.3 235.18,167 346.5,255.7 2.68,2.2 5.37,4.3 8.04,6.4 -32.63,130.3 -50.54,265.8 -47.82,400.3" data-index="25"></path><path id="path70" style="fill:#197359;fill-opacity:1;fill-rule:nonzero;stroke:none" d="m 8242.36,7332.1 c -25.49,29.6 -54.07,55.8 -77.11,71.2 -1.55,1 -3.18,2 -4.77,3.1 -111.57,72.3 -311.83,129.1 -387.74,-22.7 -48.17,-96.4 -6.33,-222.1 55.1,-301.8 41.83,-54.2 93.56,-90.5 153.88,-121 54.46,-27.6 103.59,-64.8 147.37,-107.2 44.8,-43.3 78.64,-93.6 118.92,-140.6 8.39,-9.8 13.46,-17.6 25.71,-20.4 6.62,8.3 13.49,20 18.41,30 47.82,97.7 56.97,224.1 49.63,330.9 -0.63,9 -1.49,18.1 -2.48,27.2 -9.7,89.8 -37.68,182.6 -96.92,251.3" data-index="26"></path><path id="path72" style="fill:#197359;fill-opacity:1;fill-rule:nonzero;stroke:none" d="m 13320.1,8011 c 11.7,57.6 11.3,117.6 2.4,177 -24.4,117.3 -82.5,247.1 -85.5,252.9 -31.7,60.8 -68.7,120.1 -116.4,169.7 -38.2,39.8 -110,103.6 -169.4,83.2 -55.3,-18.9 -101.9,-52.7 -145.1,-91.3 -19.1,-17.2 -45.7,-37.4 -52.5,-63 -7.8,-28.8 -5,-57 7.1,-84.3 18.8,-42.8 51.9,-78.1 82.5,-112.7 28.2,-31.8 137,-166.8 193.3,-247.7 27.8,-41.1 54.1,-83.2 78.7,-126.4 22.9,-40.1 53.9,-85.2 68.2,-129.2 1.3,-4.3 2.6,-7 3.7,-8.6 13.4,0.7 29.4,11.8 39.3,18.7 54.2,37.3 80.9,99 93.7,161.7" data-index="27"></path><g transform="scale(1.155)" id="g74"><path id="path76" style="fill:#a0642f;fill-opacity:1;fill-rule:nonzero;stroke:none" d="m 16273.5,7230.04 c -275.7,88.57 -557.2,157.84 -841.1,214.03 -283,56.11 -569.3,103.81 -856.1,134.46 -536.7,57.32 -1077.2,35.07 -1615.1,5.54 9.2,-12.64 18.1,-25.63 26.3,-39.13 49.1,-80.44 69.8,-172.04 65.6,-263.73 14.2,0.26 28.3,0.44 42.5,0.7 402.2,7.44 804.4,16.88 1206.5,-3.73 507.1,-25.97 1012.3,-95.84 1504.9,-219.48 139.8,-35.06 278.6,-74.37 416.1,-117.75 14,-4.33 27.9,-8.83 41.8,-13.33 2.4,9.35 4.6,18.79 6.6,28.22 16.4,76.11 22.3,122.95 27,200.18 1.4,21.9 1.5,43.55 1.2,65.28 -12.5,4.16 -24.6,8.23 -26.2,8.74" data-index="28"></path></g><path id="path78" style="fill:#197359;fill-opacity:1;fill-rule:nonzero;stroke:none" d="m 6860.61,6372.8 c 6.54,19.9 9.3,41.3 10.58,61.9 3.32,53.8 0.86,108.4 -4.88,161.9 -19.4,180.7 -111.55,405.8 -266.84,500.3 -82.34,50 -182.43,63.4 -298.86,13.8 -3.08,-1.3 -6.03,-2.9 -8.97,-4.4 -119.25,-63.1 -127.16,-323.6 -1.23,-389.2 17.28,-8.9 34.3,-18.3 51.18,-27.7 68.02,-38.2 132.91,-80.3 194.96,-126.1 52.22,-38.6 102.46,-79.9 150.89,-123.7 32.98,-29.8 65.19,-60.7 96.58,-92.9 11.03,-11.3 23.2,-22 34.67,-33 11.43,15.7 28.13,25.8 36.98,45.9 1.88,4.3 3.47,8.7 4.94,13.2" data-index="29"></path><path id="path80" style="fill:#8fec75;fill-opacity:1;fill-rule:nonzero;stroke:none" d="m 6930.69,9068.9 c 256.38,175.1 694.37,112.9 951.98,-82.1 -58.86,56.9 -124.59,107.1 -197.51,148.5 -290.16,164.9 -683.65,178.8 -921.76,-80.7 -60.81,-129.9 -137.02,-251.5 -229.81,-363.8 -6.28,-7.6 -12.63,-15.1 -19.05,-22.6 25.18,-31.5 48.39,-64.7 69.97,-99.2 140.18,136.6 169.96,379.5 346.18,499.9" data-index="30"></path><path id="path82" style="fill:#eb9843;fill-opacity:1;fill-rule:nonzero;stroke:none" d="m 6216.67,9743.5 c -34.43,41.1 -73.96,81.1 -119.3,119.8 -31.2,-2.8 -62.42,-5.2 -93.68,-7.1 -159.02,-9.5 -318.76,-8.5 -477.95,2.5 -242.57,16.8 -483.88,56.5 -719.43,116.4 -206.93,52.7 -432.3,117.9 -606.57,210.5 -2.06,1.1 -43.36,22.7 -95.69,50.2 -15.83,-20.6 -30.6,-41.6 -44.5,-63 333.91,-209.3 714.76,-357.2 1109.98,-404.6 356.12,-50.9 690.54,-37.8 1047.14,-24.7" data-index="31"></path><path id="path84" style="fill:#eb9843;fill-opacity:1;fill-rule:nonzero;stroke:none" d="m 6127,8862.9 c -318.8,-312.7 -741.27,-491.3 -1182.18,-545.3 207.02,-45.3 425.8,-46.2 634.51,-4.2 188.72,38 369.19,111 525.21,217.9 56.4,38.6 110.02,81.6 160.5,128.1 19.53,18 38.48,36.6 57.03,55.6 53.24,190.7 82.97,361.3 79.91,515.9 -64.9,-139.9 -169.93,-267.1 -274.98,-368" data-index="32"></path><path id="path86" style="fill:#8fec75;fill-opacity:1;fill-rule:nonzero;stroke:none" d="m 11697.2,9429.2 c -52,60.4 -111.9,112.3 -179.6,151.7 -206.7,120.3 -417.8,167 -493.1,174.4 -425.3,41.4 -918,-16.3 -1243.99,-316.4 38.49,-27 75.04,-56.8 109.45,-88.9 349.84,326.8 966.94,513.9 1807.24,79.2" data-index="33"></path><path id="path88" style="fill:#138f1e;fill-opacity:1;fill-rule:nonzero;stroke:none" d="m 9486.84,8532.2 c -356.87,-104.5 -809.49,-113.2 -1044.51,200.1 -127.49,159.4 -218.67,326 -360.04,459.9 -32,-22.7 -63.19,-46 -93.42,-69.7 98.18,-91.4 182.51,-198.7 248.63,-316.2 120.87,-214.8 188.5,-456.8 206.42,-702.9 10.94,-150.3 3.37,-302.2 -22,-450.4 -12.03,-70.2 -28,-139.7 -47.94,-207.7 41.7,-50.8 73.27,-108.9 96.16,-170.6 134.18,19.2 269.11,36.7 402.49,61 79.28,14.5 158,31.4 235.7,52.6 -19.3,24 -36.47,49.7 -50.4,77.7 -139.52,281.1 47.98,650.2 378.52,636.1 120.98,-5.2 227.65,-66 312.34,-149.8 25.14,-24.8 48.14,-51.3 69.29,-79 1.37,2 2.67,4.2 4.03,6.2 51.84,79.3 96.02,165.7 130.58,256.1 17.28,45.2 32.1,91.4 44.34,138.2 56.57,216.3 56.77,445.6 -23.21,649 -106.92,-187 -282.89,-333.2 -486.98,-390.6" data-index="34"></path><path id="path90" style="fill:#8fec75;fill-opacity:1;fill-rule:nonzero;stroke:none" d="m 9874.23,9105.4 c -17.89,24.8 -37.36,48.8 -58.49,72.1 -251.59,276.9 -656.83,336 -1012.59,307.2 -294.43,-23.8 -582.06,-179.6 -814.28,-362.2 24.15,-22.5 47.44,-46 69.85,-70.3 161.03,178.6 1049.61,602.8 1815.51,53.2" data-index="35"></path><path id="path92" style="fill:#8fec75;fill-opacity:1;fill-rule:nonzero;stroke:none" d="m 13454.5,9359.4 c -32.2,49.6 -67,96.8 -103.1,140.6 -106.8,129.6 -240.2,239.2 -398,300.6 -105,40.9 -217,64.1 -327.9,82.8 -132.8,22.3 -279.3,35.9 -424.4,37.6 -227.4,2.6 -488.2,-19.7 -685.6,-134 20.8,-11.7 41.2,-24.2 61.3,-37.2 301.1,126.1 1394.6,194.8 1877.7,-390.4" data-index="36"></path><path id="path94" style="fill:#000000;fill-opacity:1;fill-rule:nonzero;stroke:none" d="m 3419.96,12866.9 c -53.2,-358.3 150.03,-676.6 472.43,-722.4 306.72,-43.6 632.34,280.5 687.36,665.8 51.23,358.6 -183.67,625 -491.12,664.3 -288.28,36.8 -619.25,-274.8 -668.67,-607.7" data-index="37"></path><path id="path96" style="fill:#fe7354;fill-opacity:1;fill-rule:nonzero;stroke:none" d="m 6755.82,11207.3 c 43.44,-176.7 322.01,-251 608.58,-202.1 283.6,48.5 468.02,266.7 410.7,439.4 -57.31,172.7 -336,312.7 -609.07,222 -273.07,-90.6 -455.22,-276.2 -410.21,-459.3" data-index="38"></path><path id="path98" style="fill:#8fec75;fill-opacity:1;fill-rule:nonzero;stroke:none" d="m 6039.43,14815.7 c -437.9,80.5 -934.75,-72.6 -942.63,-75 -8.02,-1.9 -513.09,-125.1 -847.91,-418.6 -372.67,-326.7 -322.53,-565.5 -264.47,-505.5 677.89,699.7 1609.37,969.2 2541.16,700.4 80.18,-23.1 1.29,209.1 -486.15,298.7" data-index="39"></path><path id="path100" style="fill:#fe7354;fill-opacity:1;fill-rule:nonzero;stroke:none" d="m 3332.93,11677.9 c -48.1,-142.8 113.62,-318.5 335.7,-411.6 219.79,-92 445.62,-21.4 482.24,124.8 36.62,146.2 -96.02,367.8 -327.17,425.7 -231.15,57.9 -440.93,9.1 -490.77,-138.9" data-index="40"></path><path id="path102" style="fill:#000000;fill-opacity:1;fill-rule:nonzero;stroke:none" d="m 7651.43,12676.5 c 112.11,-384.5 -27.92,-700.4 -368.6,-799.8 -340.68,-99.3 -753.36,94 -865.46,478.6 -112.11,384.5 14.53,843.1 381.5,935.1 344.21,86.3 740.46,-229.4 852.56,-613.9" data-index="41"></path><path id="path104" style="fill:#ffffff;fill-opacity:1;fill-rule:nonzero;stroke:none" d="m 6588.89,12845.1 c 0,-99.1 79.08,-188.9 176.62,-188.9 97.54,0 175.95,83.9 175.95,183.1 0,99.1 -56.02,206.4 -176.28,206.4 -105.06,0 -176.29,-101.4 -176.29,-200.6" data-index="42"></path><path id="path106" style="fill:#ffffff;fill-opacity:1;fill-rule:nonzero;stroke:none" d="m 3786.32,13158.1 c -23.44,-86.9 28.37,-185.3 118.47,-209.6 90.11,-24.3 182.38,29.7 205.81,116.5 23.44,86.9 -2.93,194.9 -114.02,224.9 -97.04,26.1 -186.82,-45 -210.26,-131.8" data-index="43"></path><path id="path108" style="fill:#000000;fill-opacity:1;fill-rule:nonzero;stroke:none" d="m 5494.49,11271.1 c 0,-290 -156.16,-507.8 -368.48,-507.8 -212.32,0 -399.99,241.2 -399.99,531.2 0,290.1 171.71,501.8 384.03,501.8 212.32,0 384.44,-200.2 384.44,-525.2" data-index="44"></path><path id="path110" style="fill:#fe7354;fill-opacity:1;fill-rule:nonzero;stroke:none" d="m 9125.61,9058.8 c 20.07,-83.5 -106.47,-248.4 -249.15,-282.7 -142.67,-34.3 -327.02,-1 -347.09,82.5 -20.06,83.4 110.29,235.2 252.96,269.5 142.67,34.3 323.22,14.1 343.28,-69.3" data-index="45"></path><path id="path112" style="fill:#fe7354;fill-opacity:1;fill-rule:nonzero;stroke:none" d="m 7483.41,8871.6 c 20.07,-83.4 -20.32,-221.9 -162.99,-256.2 -142.68,-34.3 -327.03,-1 -347.1,82.5 -20.06,83.4 110.29,235.2 252.96,269.5 142.67,34.3 237.07,-12.3 257.13,-95.8" data-index="46"></path><path id="path114" style="fill:#fe7354;fill-opacity:1;fill-rule:nonzero;stroke:none" d="m 10891.2,9445.4 c 20.5,-57.7 -76.7,-170 -177.1,-199.5 -163.2,-47.9 -266.4,-5.1 -280.7,54.4 -14.3,59.5 113.3,208.9 215,233.4 101.7,24.4 208.5,8.1 242.8,-88.3" data-index="47"></path><path id="path116" style="fill:#fe7354;fill-opacity:1;fill-rule:nonzero;stroke:none" d="m 12579.2,9610.7 c 9.5,-39.4 -52.1,-138.5 -118.7,-158 -108.1,-31.7 -176.5,-3.4 -186,36.1 -9.5,39.4 75,138.5 142.5,154.7 67.4,16.2 152.7,6.7 162.2,-32.8" data-index="48"></path><path id="path118" style="fill:#eb9843;fill-opacity:1;fill-rule:nonzero;stroke:none" d="m 7035.17,6639.4 c 270.03,0.4 541.06,72.3 760.51,231.4 -3.36,2.5 -6.7,5.1 -9.98,7.8 -56.95,46.4 -107,104.3 -142.58,168.8 -12.21,22.1 -22.86,45.2 -31.82,68.8 -193.58,-121.4 -421.45,-191.4 -654.79,-192.5 38.73,-90.5 65,-186.4 78.66,-284.3" data-index="49"></path><path id="path120" style="fill:#eb9843;fill-opacity:1;fill-rule:nonzero;stroke:none" d="m 8268.8,7823.9 c -38.96,43.2 -77.76,82.6 -116.27,118.9 -12.68,-108.2 -41.61,-211 -84,-306.9 55.49,-14.6 109.34,-37.8 158.28,-66.8 20.32,83.7 34.39,169 41.99,254.8" data-index="50"></path><path id="path122" style="fill:#eb9843;fill-opacity:1;fill-rule:nonzero;stroke:none" d="m 5919.66,7987.8 c -50.39,66.4 -105.6,128.6 -165.97,185.7 -10.33,-2.9 -20.67,-5.8 -31.05,-8.4 -62.2,-15.4 -127.37,-21.4 -190.91,-28.5 -160.59,-18.2 -630.02,-48.6 -1033.78,176.2 -171.36,95.4 -335.01,218.5 -462.64,369.2 -13.74,-47.1 -26.41,-94.4 -38.06,-142 217.71,-257.3 873.44,-741.9 1922.41,-552.2" data-index="51"></path><path id="path124" style="fill:#eb9843;fill-opacity:1;fill-rule:nonzero;stroke:none" d="m 6119.99,6663.8 c -37.98,67.4 -70.5,141.5 -85.14,217.5 -242.97,-259.7 -614.89,-391.4 -970.49,-443.7 367.57,-65.7 735.78,48.4 1055.63,226.2" data-index="52"></path><path id="path126" style="fill:#f1c33a;fill-opacity:1;fill-rule:nonzero;stroke:none" d="m 8229.51,7580.7 c -1.42,-3.5 -2.83,-7.1 -4.24,-10.7 0.51,-0.3 1.03,-0.6 1.54,-0.8 0.93,3.8 1.79,7.7 2.7,11.5" data-index="53"></path><path id="path128" style="fill:#f1c33a;fill-opacity:1;fill-rule:nonzero;stroke:none" d="m 8421.92,7653 c -12.03,-70.2 -28,-139.7 -47.94,-207.7 41.7,-50.8 73.27,-108.9 96.15,-170.6 134.19,19.2 269.12,36.7 402.5,61 79.28,14.5 158,31.4 235.7,52.6 -19.3,24 -36.47,49.7 -50.4,77.7 -139.52,281.1 47.98,650.2 378.52,636.1 120.97,-5.2 227.65,-66 312.34,-149.8 25.14,-24.8 48.14,-51.3 69.29,-79 53.61,80.9 99.15,169.5 134.61,262.3 -669.78,817.3 -1292.08,316 -1473.41,29 -12.61,-20 -24.29,-40.4 -35.36,-61.2 10.94,-150.3 3.38,-302.2 -22,-450.4" data-index="54"></path><path id="path130" style="fill:#eb9843;fill-opacity:1;fill-rule:nonzero;stroke:none" d="m 8432.24,7721.9 c -3.06,-23.1 -6.4,-46 -10.32,-68.9 -12.03,-70.2 -28,-139.7 -47.94,-207.7 41.7,-50.8 73.27,-108.9 96.16,-170.6 134.18,19.2 269.11,36.7 402.49,61 79.28,14.5 158,31.4 235.7,52.6 -19.3,24 -36.47,49.7 -50.4,77.7 -43.93,88.5 -55.41,185.7 -40.24,277 -148.51,-129.3 -387.07,-127.1 -585.45,-21.1" data-index="55"></path><path id="path132" style="fill:#eb9843;fill-opacity:1;fill-rule:nonzero;stroke:none" d="m 9875.05,8224.5 c -55.95,-81.6 -127.01,-148.5 -207.04,-204.8 28.7,-19.9 55.72,-42.6 80.78,-67.4 25.14,-24.8 48.14,-51.3 69.29,-79 53.61,80.9 99.15,169.5 134.61,262.3 -25.96,31.7 -51.84,61.1 -77.64,88.9" data-index="56"></path><path id="path134" style="fill:#f1c33a;fill-opacity:1;fill-rule:nonzero;stroke:none" d="m 9690.49,7080.1 c 6.6,-2.1 3.75,0.2 0,0 v 0" data-index="57"></path><path id="path136" style="fill:#eb9843;fill-opacity:1;fill-rule:nonzero;stroke:none" d="m 10094.3,8027.6 c -11,-26 -22.6,-51.6 -35,-77 -32.9,-67.4 -70.38,-132.2 -111.98,-193.4 6.9,-2.2 13.84,-4.3 20.85,-6.3 47.63,-13.2 95.03,-23.6 142.23,-31.8 44.9,-7.8 89.6,-13.6 133.9,-17.7 244.1,-22.5 488.5,-0.8 724.2,61.3 -7.6,9 -15.3,18 -22.9,27 -39.5,46.4 -75.2,92.3 -101.9,145 -260.3,-82 -543,-76.1 -749.4,92.9" data-index="58"></path><path id="path138" style="fill:#eb9843;fill-opacity:1;fill-rule:nonzero;stroke:none" d="m 11794.7,8737.2 c -55.1,-116.3 -127,-218.7 -212.3,-311.5 52.7,-48.4 95.4,-108.3 122.8,-178.2 6.4,-16.5 12.5,-33.4 18.3,-50.4 89.2,125.2 156.2,264.7 188.5,411.4 -36.2,45.5 -75.4,88.6 -117.3,128.7" data-index="59"></path><path id="path140" style="fill:#eb9843;fill-opacity:1;fill-rule:nonzero;stroke:none" d="m 12080.8,8560.1 c -11.3,-48.4 -25.8,-96.1 -43.2,-142.8 -18.8,-50.5 -41.1,-99.9 -66.2,-147.9 78.4,-29.8 160.5,-50 243.8,-62.8 73.2,-11.2 147.2,-16.7 220.5,-17.9 98.7,-1.6 197.4,4.7 295,18.5 -3.5,4.1 -7,8.2 -10.6,12.2 -51.7,58.4 -102,121.5 -128,193.1 -79.1,-38.2 -427.2,-38.2 -511.3,147.6" data-index="60"></path><path id="path142" style="fill:#eb9843;fill-opacity:1;fill-rule:nonzero;stroke:none" d="m 13559.7,8897.1 c -91.2,-124.1 -124,-199.4 -245.9,-245.6 42.2,-59.2 76.8,-124.7 106,-190.6 22.2,16.2 43.7,33.1 64.2,51.2 68,59.9 116.6,129.7 139.2,216.8 -12.8,61.2 -35.3,117.2 -63.5,168.2" data-index="61"></path><g transform="scale(1.01984)" id="g144"><path id="path146" style="fill:#138f1e;fill-opacity:1;fill-rule:nonzero;stroke:none" d="m 5999.26,15885.4 c -183.02,46.9 -452.35,-17.1 -580.37,187.8 -49.92,71.3 -10.48,148.6 18.79,226.8 -90.32,-39.6 -160.34,-112.8 -188.87,-234.5 -42.35,-180.7 105.3,-280.3 268.74,-291.2 144.71,-9.6 288.34,17.5 432.75,-4.7 229.73,-35.4 397.69,-220.4 533.4,-395.1 165.87,-213.4 302.66,-452.4 391.53,-708.3 94.09,-47.5 185.9,-100.7 274.92,-159.4 -249.22,578.3 -573.36,1230.7 -1150.89,1378.6" data-index="62"></path></g><path id="path148" style="fill:#138f1e;fill-opacity:1;fill-rule:nonzero;stroke:none" d="m 3498.31,15573.9 c -182.79,17.4 -330.76,-78.3 -478.73,-174.1 -191.49,-130.6 -348.17,-374.3 -600.59,-304.6 -40.06,14.3 -76.26,37.2 -108.17,65.9 4.77,-34.1 13.72,-67.8 27.15,-100.9 26.75,-66 69.35,-122.5 127.57,-173.2 3.35,-3 15.85,-12.8 16.44,-13.6 61.88,-45.1 125.59,-51.2 193.75,-10.5 86.64,51.6 159.82,131.9 228.74,204.2 60.02,63.1 118.6,127.6 181.93,187.4 57.33,54.1 120.11,108.3 192.37,141.3 83.51,38.1 163.47,38.4 252.17,16.4 201,-49.9 374.98,-186.7 524.24,-324.5 63.95,-59.1 124.63,-121.5 184.78,-184.3 20.98,-22 41.79,-44.1 63.44,-65.4 7.24,-7.1 15.48,-13.6 22.49,-20.9 0.57,-0.3 1.07,-0.6 1.75,-1 2.33,-1.2 4.44,-2.6 6.56,-4 24.47,14.7 49.22,29 74.25,42.7 0.57,0.3 1.23,0.6 1.81,0.9 -248.41,302.5 -482.89,675.3 -911.95,718.2" data-index="63"></path><path id="path150" style="fill:#acd371;fill-opacity:1;fill-rule:nonzero;stroke:none" d="m 13786.5,9037.6 c 5.2,-21.9 9.7,-43.9 13.3,-66.1 237.3,-16.4 471.8,-77.9 689,-169.7 42.8,8.8 83.5,16.5 121.1,23.2 21.2,25.2 -566.2,210 -823.4,212.6" data-index="64"></path><path id="path152" style="fill:#197359;fill-opacity:1;fill-rule:nonzero;stroke:none" d="m 9766.04,7140.1 c 55.6,71.6 75.38,155.3 69.47,244.7 -6.38,96.7 -46.32,197.4 -91.21,282.3 -2.26,4.3 -4.6,8.5 -6.95,12.8 -0.38,0.7 -0.8,1.4 -1.17,2.2 -44.33,79.9 -104.07,156.8 -182.15,205.4 -55.58,34.5 -101.15,45.5 -161.56,39.3 -0.61,-0.2 -10.26,-1.7 -14.04,-2.5 -6.14,-1.3 -12.27,-2.7 -18.37,-4.2 -11.54,-3 -22.94,-6.4 -34.23,-10.2 -9.83,-3.3 -19.54,-6.9 -29.19,-10.6 -140.46,-93.1 -144.34,-303.8 -35.93,-421.6 59.49,-64.6 133.13,-114 201.58,-168.3 34.65,-27.4 69.17,-56 98.35,-89.3 26.87,-30.8 49.61,-64.9 76.55,-95.5 11.05,-12.6 23.83,-26.4 35.53,-35.2 1.48,-1.1 17.63,-9.2 12.55,-7.5 2.15,-0.8 3.84,-1.4 5.16,-1.8 27.21,1.8 58.29,37.7 75.61,60" data-index="65"></path><path id="path154" style="fill:#25b633;fill-opacity:1;fill-rule:nonzero;stroke:none" d="m 9690.49,7080.1 c 6.6,-2.1 3.75,0.2 0,0 v 0" data-index="66"></path><path id="path156" style="fill:#acd371;fill-opacity:1;fill-rule:nonzero;stroke:none" d="m 3815.46,7414.3 c -12.33,44.6 -22.92,89.6 -31.74,134.9 -243.26,-181 -480.13,-370.6 -698.14,-581.9 -58.48,-56.6 -115.72,-114.9 -171.75,-174.5 -155.89,-166 -322.02,-364.7 -457.12,-549.9 89.03,40.3 190.94,78.8 281.7,115.3 313.3,388.1 678.14,756.5 1077.05,1056.1" data-index="67"></path><g transform="scale(1.15499)" id="g158"><path id="path160" style="fill:#c6a282;fill-opacity:1;fill-rule:nonzero;stroke:none" d="m 14576.4,7526.45 c 286.8,-30.65 573.1,-78.36 856.1,-134.46 283.9,-56.19 565.4,-125.46 841.1,-214.03 1.5,-0.52 13.4,-4.5 25.7,-8.66 0.7,17.41 0.7,34.63 0.4,52.04 -12.4,4.15 -24.6,8.22 -26.1,8.74 -275.7,88.57 -557.2,157.84 -841.1,214.03 -283,56.1 -569.3,103.81 -856.1,134.46 -536.8,57.32 -1077.2,35.07 -1615.1,5.54 9.2,-12.64 18.1,-25.63 26.3,-39.13 2.3,-3.73 4.4,-7.45 6.5,-11.17 527.1,28.57 1056.4,48.74 1582.3,-7.36" data-index="68"></path></g><g transform="scale(1.15409)" id="g162"><path id="path164" style="fill:#784b23;fill-opacity:1;fill-rule:nonzero;stroke:none" d="m 15819.5,7186.73 c -493,123.73 -998.6,193.66 -1506.1,219.65 -402.4,20.54 -804.9,11.18 -1207.4,3.73 -5.9,-0.18 -27.3,-2 -51.5,-4.16 7.9,-38.99 10.7,-79.02 8.9,-118.97 14.2,0.26 28.3,0.43 42.6,0.69 402.5,7.45 805,16.9 1207.4,-3.72 507.5,-26 1013.1,-95.92 1506.1,-219.66 140,-35.09 278.9,-74.43 416.5,-117.84 13.9,-4.33 27.9,-8.84 41.8,-13.34 2.4,9.35 4.6,18.8 6.6,28.24 6.8,31.46 11.7,57.97 15.6,83.71 -24,9.01 -54.8,20.97 -64,23.83 -137.6,43.4 -276.5,82.66 -416.5,117.84" data-index="69"></path></g><path id="path166" style="fill:#acd371;fill-opacity:1;fill-rule:nonzero;stroke:none" d="m 2665.61,6242.9 c -88.86,-37.8 -204.38,-74.9 -287.83,-122 -111.57,-168.5 -265.8,-415.1 -358.34,-592.4 -279.65,-535.6 -419.86,-1118.6 -407.21,-1720 12.68,5.5 25.4,11 38.1,16.5 40.99,544.4 169.63,1075.3 437.89,1564.9 149.47,275.5 394.71,606.5 577.39,853" data-index="70"></path><path id="path168" style="fill:#58890e;fill-opacity:1;fill-rule:nonzero;stroke:none" d="m 12177.7,6269.4 c -0.1,1.9 -0.1,3.8 -0.1,5.4 -8.3,-3.5 -7.9,-5.5 0.1,-5.4" data-index="71"></path><path id="path170" style="fill:#58890e;fill-opacity:1;fill-rule:nonzero;stroke:none" d="m 14886.1,8551.2 c -11.4,34.4 -28,65.9 -48.3,95 -50.6,-331.1 -477.8,-838.8 -556.9,-970.6 -0.3,1.2 -0.8,2.4 -0.9,3.5 -918.5,-1100.8 -2015.5,-1409.5 -2102.3,-1409.7 l -41.5,-8 c -2.6,-0.4 -601.2,-342.7 -1793.6,-503.6 -308.6,-41.7 -692.44,-95.5 -850.05,-95.5 -180.02,0 -435.79,125.3 -800.72,95.2 -117.21,-4.5 -327.06,-89.9 -458.4,-210.9 -118.96,145.1 -472.95,311.6 -508.43,329 -350.39,171.8 -826.87,196.4 -906.01,198.7 -2.92,-6.7 -16.61,-3.1 -15.05,0 -126.3,1.1 -343.72,-53.4 -504.31,-125.9 -388.79,-175.5 -500.49,-598.4 -480.18,-1083.6 -17.38,3.1 -653.21,-91.8 -658.62,-63.9 -71.24,367.4 -374.23,484.9 -512.05,518 1.42,3.8 -71.44,3.3 -72.46,-0.8 -63.01,-8 -141.22,-18.5 -164.06,-41.3 -165.38,-148 -155.64,-293.1 -364.54,-380.1 -208.91,-78.4 -2246.46,-618.8 -2435.49,-1088.2 127.58,54.1 498.9,211.7 627.67,262.9 563.47,224 1152.56,427.8 1758.91,498 103.68,12 162.84,-1.6 266.93,2.6 17.18,0.7 79.53,27.8 94.52,37.8 0,0 86.41,224.4 91.17,243.4 27.29,108.6 133.39,283.2 127.66,265.4 55.12,23.9 164.32,42.5 223.9,30.1 87,-18.2 138.41,-88.8 169.44,-167.2 39.88,-100.7 52.41,-211.3 72.14,-317.1 5.12,-27.5 10.67,-54.9 16.13,-82.3 0.56,-2.8 1.21,-5.8 3.29,-7.7 2.65,-2.5 6.72,-2.5 10.36,-2.3 255.79,12.1 513.17,57.9 767.12,90.1 49.55,6.2 102.39,12.4 149.56,29.9 1.76,0.6 6.13,2 10.5,3.4 -0.29,1.2 -0.59,2.5 -0.92,3.9 -23.3,95.9 -23.07,206.5 -22.04,304.4 2.29,218 44.74,443.3 187.66,614.6 128.41,153.9 358.75,274 561.18,308.4 172.05,29.1 462.43,24.2 601.95,-22.2 351.89,-117.2 650.47,-337.7 858.46,-644.8 19.53,-28.8 37.95,-58.3 56.3,-87.9 12.73,13.4 25.69,26.6 39.19,39.2 40.17,37.6 83.8,72.1 129.68,102.5 17.32,11.5 177.88,84.1 205.6,98.3 22.58,7.3 45.39,13.7 68.36,18.9 162.39,36.8 331.61,26.4 492.13,-14.7 58.43,-15 115.66,-34.3 171.67,-56.7 23.36,-9.3 46.46,-19.2 69.62,-29 2.53,-1 6.3,-2.4 6.39,-2.6 1.47,-0.6 2.96,-1.2 3.84,-1.6 8.93,0.6 21.71,1.1 28.24,1.3 16.22,0.6 32.45,1.2 48.68,1.8 39.55,1.5 79.1,2.8 118.64,4.2 92.98,3.3 185.95,6.9 278.87,11.6 133.87,6.8 267.57,16 400.97,27.8 0.3,-7.3 0.7,-14.7 1.1,-21.8 339.3,34.9 806.5,122.8 1138.9,202 235.9,56.2 520.4,122.1 748,205.1 -1.1,8 732.7,278.7 1104.9,563.1 361.3,276.1 1003.2,876.2 1090.5,1105.3 149.8,208.9 282.7,430.5 397.2,662.6 71,143.8 153.2,298.8 99.5,462" data-index="72"></path><path id="path172" style="fill:#25b633;fill-opacity:1;fill-rule:nonzero;stroke:none" d="m 9430.39,5326.2 c 0.07,0 0.13,0 0.19,0 -0.67,0.3 -1.82,0.7 -3.62,1.4 0.33,-0.1 1.69,-0.7 3.43,-1.4" data-index="73"></path><path id="path174" style="fill:#138f1e;fill-opacity:1;fill-rule:nonzero;stroke:none" d="m 8011.69,13567.7 c 157.71,-436.8 233.74,-904.5 171.62,-1366.2 -25.68,-190.9 -84.23,-380.6 -147.23,-564.5 -222.17,-648.5 -777.38,-932.8 -790.19,-940.7 -106.33,-66.2 -216.9,-125.6 -330.58,-178.1 -260.95,-120.7 -536.6,-201 -818.25,-245 -326.44,-50.9 -660.94,-53 -990.02,-11.9 -328.57,41.1 -654.59,124.2 -961.73,248 -68.8,27.8 -137.07,58.1 -204.31,90.9 -6.79,4.8 -14.49,8.7 -23.08,11.4 -40.21,20.1 -80,41.1 -119.27,63.1 -97.8,54.8 -192.16,115.7 -281.4,182.9 24.05,-24.9 48.48,-49.1 73.19,-72.4 77.56,-73 161.43,-139.6 249.54,-200.5 65.1,-45 132.44,-87 201.6,-125.7 2.03,-1.1 4.28,-2.4 6.56,-3.6 41.23,-22.7 121.06,-62.9 133.49,-69.7 66.16,-32.3 133.34,-62.2 201.02,-89.4 302.19,-121.9 622.96,-203.6 946.23,-244 28.72,-3.6 57.49,-6.7 86.29,-9.7 98.75,-9.9 197.89,-15.9 297.04,-17.8 197.85,-3.8 395.75,8.8 590.73,39.2 277.11,43.2 548.31,122.3 805.06,241 111.85,51.7 220.63,110.1 325.24,175.2 12.61,7.8 558.87,287.5 777.46,925.5 61.99,181 119.59,367.7 144.86,555.5 61.12,454.2 -13.68,914.4 -168.86,1344.2 0,0 -97.41,264 -157.7,389.3 -28.07,58.3 -58.21,115.6 -90.62,171.6 -29.84,51.6 -59.74,110.5 -98.63,155.9 -3.74,4.3 -7.04,9 -9.81,14 -17.04,24.2 -34.82,47.7 -53.17,70.8 26.34,-47.1 51.24,-95 74.63,-143.6 61.28,-127.3 160.29,-395.7 160.29,-395.7" data-index="74"></path><path id="path176" style="fill:#8fed75;fill-opacity:1;fill-rule:nonzero;stroke:none" d="m 2525.53,15471.9 c -91.68,-127.2 59.52,-216.8 161.29,-113.6 219.58,222.8 398.85,282.3 349.33,344.2 -57.78,72.3 -382.84,-53.4 -510.62,-230.6" data-index="75"></path><g transform="scale(1.01852)" id="g178"><path id="path180" style="fill:#8fed75;fill-opacity:1;fill-rule:nonzero;stroke:none" d="m 5561.62,16272.3 c -152.65,-19.8 -115.16,-188.3 27.14,-191.7 306.99,-7.5 470.09,-95.7 481.13,-18.7 12.87,89.9 -295.55,238.1 -508.27,210.4" data-index="76"></path></g><path id="path182" style="fill:#fe7354;fill-opacity:1;fill-rule:nonzero;stroke:none" d="m 6533.2,9571.7 c 0,-49.9 -39.17,-95.1 -64.46,-95.1 -25.29,0 -45.8,40.4 -45.8,90.3 0,49.8 20.51,90.3 45.8,90.3 25.29,0 64.46,-35.6 64.46,-85.5" data-index="77"></path><path id="path184" style="fill:#f2e43b;fill-opacity:1;fill-rule:nonzero;stroke:none" d="m 5086.2,9289.2 c -12.24,-149.6 -212.58,-255.2 -447.47,-236 -234.88,19.2 -415.37,156.1 -403.12,305.6 12.24,149.6 212.58,255.2 447.47,236 234.88,-19.2 415.37,-156 403.12,-305.6" data-index="78"></path><path id="path186" style="fill:#f2e43b;fill-opacity:1;fill-rule:nonzero;stroke:none" d="m 5286.47,7463.4 c -10.89,-133 -200.81,-225.9 -424.2,-207.7 -223.4,18.3 -395.67,141 -384.78,273.9 10.89,133 200.81,226 424.2,207.7 223.39,-18.3 395.66,-140.9 384.78,-273.9" data-index="79"></path><path id="path188" style="fill:#fe7354;fill-opacity:1;fill-rule:nonzero;stroke:none" d="m 6425.41,7752.8 c 25.19,-107.9 -2.99,-206.7 -62.95,-220.7 -59.96,-14 -129,62.1 -154.19,170 -25.19,107.9 2.99,206.8 62.96,220.8 59.96,14 128.99,-62.2 154.18,-170.1" data-index="80"></path><path id="path190" style="fill:#f2e43b;fill-opacity:1;fill-rule:nonzero;stroke:none" d="m 7481.99,7864.2 c -85.58,-74.7 -158.06,-229.5 -105.9,-289.3 52.17,-59.7 209.24,-1.8 294.81,72.9 85.57,74.7 112.65,183.7 60.48,243.5 -52.16,59.7 -163.82,47.6 -249.39,-27.1" data-index="81"></path><path id="path192" style="fill:#f2e43b;fill-opacity:1;fill-rule:nonzero;stroke:none" d="m 9068.76,8371.8 c -102.28,-49.4 -188.75,-157.7 -154.22,-229.1 34.52,-71.4 167.94,-40.8 270.21,8.6 102.27,49.5 166.23,109.4 131.7,180.8 -34.52,71.4 -145.42,89.2 -247.69,39.7" data-index="82"></path><path id="path194" style="fill:#f2e43b;fill-opacity:1;fill-rule:nonzero;stroke:none" d="m 10857,8883.2 c -102.3,-49.4 -163.7,-208.6 -129.2,-280 34.6,-71.4 168,-40.8 270.2,8.6 102.3,49.5 166.3,109.4 131.7,180.8 -34.5,71.4 -170.5,140.1 -272.7,90.6" data-index="83"></path><path id="path196" style="fill:#f2e43b;fill-opacity:1;fill-rule:nonzero;stroke:none" d="m 12695,9097 c -102.3,-49.5 -181.1,-115.4 -146.6,-186.8 34.5,-71.4 167.9,-40.7 270.2,8.7 102.3,49.5 166.2,109.3 131.7,180.8 -34.5,71.4 -153,46.7 -255.3,-2.7" data-index="84"></path><g transform="scale(1.16605)" id="g198"><path id="path200" style="fill:#000000;fill-opacity:1;fill-rule:nonzero;stroke:none" d="m 16144.1,7088.21 c -4.7,-76.5 -10.6,-122.89 -26.8,-198.28 -1.9,-9.34 -4.2,-18.69 -6.5,-27.95 -13.8,4.46 -27.6,8.91 -41.4,13.2 -136.2,42.97 -273.7,81.9 -412.2,116.64 -487.9,122.46 -988.3,191.67 -1490.6,217.4 -398.3,20.41 -796.7,11.06 -1195.1,3.69 -14.1,-0.26 -28,-0.43 -42.1,-0.69 4.2,90.82 -16.3,181.55 -64.9,261.22 -8.2,13.38 -17,26.24 -26.1,38.77 532.8,29.24 1068.1,51.28 1599.8,-5.49 284.1,-30.36 567.7,-77.61 847.9,-133.19 281.3,-55.66 560.1,-124.26 833.2,-212 1.5,-0.51 13.6,-4.54 25.9,-8.66 0.3,-21.52 0.3,-42.96 -1.1,-64.66 z m -3463.2,-150.94 c -72.5,-147.16 -265.3,-437.97 -374.6,-600.74 -20.9,102.99 -55.4,253.41 -60.8,355.9 -12.5,233.09 24.5,436.52 109.9,604.52 28.2,55.57 62.7,109.43 102.6,160.2 l 5.4,6.86 8.6,1.37 c 39.1,6.35 121.4,24.79 171.9,33.02 16.1,-11.75 30.2,-23.67 41.7,-35.51 35.7,-37.04 64.4,-79.92 80.7,-129.41 46,-139.96 -24.5,-272.89 -85.4,-396.21 z m -453.2,-718.15 c -239.8,-303.07 -523.6,-570.21 -846.4,-789.07 -269.4,-182.76 -559.3,-330.86 -861.2,-448.96 -6.6,-2.14 -14.1,-4.71 -22.4,-7.54 -7.7,72.55 -17.6,197.76 -21,263.02 -7,138.25 -10,288.41 -8.9,459.08 1.1,190.47 5.9,358.38 14.5,513.27 2.1,36.62 3.9,66.89 5.9,95.19 7.5,110.54 16.9,212.77 28.8,312.42 l 2.4,19.98 c 7.7,66.12 24.2,170.24 43.1,240.82 15.4,-1.37 26.8,-2.32 27.1,-2.41 145.5,-9.26 293.1,2.49 434.7,30.02 26.3,-36.45 51.2,-73.92 74.5,-112.77 49.3,-81.9 84.3,-215.51 196.4,-224.44 94.8,-7.54 181.3,66.56 226.9,143.82 68.9,116.89 69.9,266.37 37.3,399.64 3.4,2.32 6.9,4.55 10.4,6.86 44.8,30.45 88.4,63.89 126.8,102.23 0.9,0.43 18.6,17.07 41.3,46.57 50.6,18.78 128.7,43.39 174.2,58.83 131.7,44.68 267.5,81.81 403.5,110.46 l 51,10.72 -27.3,-44.43 c -62.4,-100.93 -107,-210.62 -132.5,-325.88 l -0.4,-1.38 c -1.1,-5.14 -2.2,-10.2 -3.3,-15.35 -16.1,-78.89 -24.8,-160.11 -26.3,-248.53 -1.9,-109.6 7.4,-226.15 28.4,-356.42 7.5,-46.22 30.9,-138.93 45.2,-201.27 -14.5,-21.53 -22.8,-34.05 -22.7,-34.48 z m -1771.3,447.24 c -16,-120.67 -28.1,-253.85 -38,-419.11 l -1.4,-25.04 c -19.3,-335.67 -22.5,-642.77 -9.6,-938.98 3.6,-81.65 16.3,-232.58 27,-330.95 -161.8,-54.29 -452.66,-150.51 -618.35,-189.96 -285.06,-67.92 -574.24,-113.8 -865.31,-143.73 -6.18,-0.77 -14.41,-1.63 -24.1,-2.58 -9.52,214.06 -8.15,477.26 4.8,694.92 9.86,164.91 24.7,311.65 45.37,448.78 20.33,134.38 45.71,256.59 77.7,373.74 26.24,96.3 70.75,240.04 106.43,326.66 14.23,1.45 28.04,3.08 41.33,4.97 106,14.32 210.28,36.71 312.51,67.84 43.22,-48.11 87.73,-95.11 134.47,-139.71 67.75,-64.57 153.6,-146.56 252.48,-153.34 78.12,-5.31 145.47,59.87 176.77,125.9 35.8,75.9 45,161.83 44.2,245.01 -0.6,77.45 -7.9,158.06 -22.1,237.39 31.3,36.79 60.8,75.13 88.1,114.83 h 0.1 c 90.9,-36.87 186.4,-61.57 284.1,-75.9 -0.2,-0.6 9,-1.8 22.3,-3.25 -13.3,-55.41 -28.8,-142.28 -35.8,-195.28 z M 8853.23,4962.23 c -0.43,-101.2 -4.55,-249.74 -0.6,-352.91 -110.89,-9.34 -275.72,-21.18 -358.11,-25.38 -79.69,-4.03 -159.42,-7.12 -239.16,-9.95 -33.9,-1.2 -67.82,-2.31 -101.74,-3.6 -13.92,-0.51 -27.84,-1.03 -41.75,-1.54 -5.6,-0.17 -16.56,-0.6 -24.22,-1.12 -0.75,0.35 -2.03,0.86 -3.29,1.37 -0.08,0.18 -3.31,1.38 -5.48,2.24 -19.86,8.4 -39.67,16.89 -59.71,24.87 -48.03,19.21 -97.11,35.76 -147.22,48.62 -137.66,35.25 -282.37,42.37 -422.05,12.61 -31.09,-6.61 -60.68,-15.78 -87.78,-25.99 l 9.13,50.09 c 78.32,410.1 149.48,722.44 230.76,1012.82 17.83,63.63 34.86,121.95 52.05,178.21 30.52,99.82 73.87,227.26 101.63,300.93 77.88,17.66 157.19,36.45 182.02,44.68 8.79,-6.86 17.61,-13.73 26.38,-20.41 35.04,-26.85 70.35,-53.43 102.6,-83.7 l 79.57,-94.08 c 63.82,-78.56 155.13,-125.64 252.18,-73.16 86.19,46.66 149.98,150.34 173.33,243.22 19.98,79.5 15.52,160.63 -2.59,239.1 -4.9,21.18 -10.72,42.28 -17.41,63.03 17.34,-4.12 34.75,-7.8 52.16,-11.15 31.47,-6.17 63.11,-11.4 94.85,-15.86 96.13,-13.38 254.88,-18.87 393.03,-10.64 -66.03,-163.71 -137.47,-414.22 -174.18,-645.34 -41.93,-263.71 -62.94,-540.71 -64.4,-846.96 z m -765.76,-394.5 c -1.49,0.6 -2.66,1.12 -2.94,1.2 1.55,-0.6 2.53,-0.94 3.11,-1.2 -0.06,0 -0.11,0 -0.17,0 z m -804.89,28.48 c -36.08,-18.53 -60.59,-34.65 -67.62,-39.28 -39.35,-26.08 -76.77,-55.66 -111.22,-87.91 -11.58,-10.8 -22.69,-22.12 -33.61,-33.61 -15.74,25.38 -31.53,50.68 -48.28,75.38 -178.37,263.37 -434.43,452.47 -736.21,552.98 -128.83,42.88 -273.96,56.68 -416.74,41.5 0.29,0.52 -14.75,-1.71 -35.09,-5.05 25.81,44.93 69.76,149.39 83.27,185.58 11.53,4.29 21.43,8.83 28.18,13.29 39.63,31.73 64.17,74.87 78.77,122.47 11.98,39.19 17.28,81.47 18.54,122.98 281.29,1.54 558.23,88.41 779.02,265.17 7.71,-5.49 15.22,-11.24 22.43,-17.5 37.66,-32.67 69.69,-69.64 95.88,-104.37 24.71,-32.76 49.11,-66.04 86.16,-85.85 60.73,-32.67 126.4,-27.78 172.87,24.62 70.21,79.24 97.16,201.11 104,310.53 1.49,24.02 2.05,47.43 1.85,69.73 -0.27,28.9 -2.28,58.14 -5.97,87.21 93.39,13.38 187.21,25.82 280.43,41.08 8.25,1.37 45.93,9.35 94.15,19.9 -39.26,-108.23 -87.17,-268.17 -124.98,-403.42 -14.55,-52.05 -29.44,-107.28 -44.26,-164.31 -56.29,-216.46 -110.56,-454.87 -165.91,-728.62 -12.39,-61.31 -40.08,-182.49 -55.66,-262.5 z m -1475.73,584.53 c -9.18,-19.12 -39.15,-69.72 -53.24,-94.68 -15.4,-2.91 -26.17,-5.23 -26.6,-5.91 -170.83,-42.88 -328.7,-129.84 -438.87,-261.83 -122.57,-146.9 -158.97,-340.12 -160.94,-527.08 -0.88,-83.95 -1.08,-178.81 18.9,-261.05 0.29,-1.2 0.55,-2.32 0.79,-3.34 -3.74,-1.2 -7.49,-2.4 -9,-2.92 -40.46,-15.01 -85.77,-20.32 -128.27,-25.64 -217.78,-27.62 -438.51,-66.9 -657.87,-77.27 -3.12,-0.17 -6.62,-0.17 -8.89,1.97 -1.78,1.63 -2.34,4.2 -2.82,6.61 -4.68,23.49 -9.44,46.99 -13.83,70.58 -16.92,90.73 -27.67,185.58 -61.87,271.94 -26.61,67.24 -70.7,127.78 -145.31,143.39 -51.1,10.63 -104.78,12.69 -152.05,-7.72 -4.13,-1.11 -12.53,-3.77 -22.92,-7.63 72.28,216.54 175.64,473.73 278.7,672.95 45.03,87.05 104.62,206.86 156.14,292.62 19.13,-2.83 33.22,-4.72 33.63,-4.03 332.68,-30.45 663.31,79.15 950.54,246.64 26.58,-14.66 52.77,-30.01 78.5,-46.14 50.12,-31.39 98.37,-65.69 143.57,-103.85 51.39,-43.4 97.43,-91.76 145.05,-139.11 24.82,-24.69 49.7,-51.54 79.99,-54.02 9.27,-0.77 21.38,0.08 34.61,2.06 -7.84,-19.13 -22.26,-54.72 -29.08,-68.53 -3.05,-6.09 -6.03,-12.09 -8.86,-18.01 z M 3849.64,4338.67 c -33.77,-48.63 -54.88,-125.55 -68.56,-180.01 -4.08,-16.29 -50.64,-205.65 -84.73,-212.43 -87.63,-17.4 -177.89,-5.4 -266.81,-15.69 -520.01,-60.21 -1025.38,-246.82 -1508.61,-438.92 -110.43,-43.91 -220.25,-89.28 -329.66,-135.67 -2.39,-0.69 -14.92,-5.83 -32.69,-13.38 155.48,299.47 393.51,654.26 648.51,942.41 228.82,258.48 495.51,511.65 792.66,752.37 32.7,26.5 68.63,54.98 109.84,87.05 33.15,25.81 67.34,51.88 103.64,79.16 2.87,2.14 33.31,25.21 44.11,33.35 11.57,-2.65 22.77,-4.2 32.77,-3.94 73.56,1.63 140.9,68.61 195.33,110.89 108.81,84.47 226.93,170.92 361.8,221.17 129.32,-85.67 272.7,-148.96 423.07,-181.55 2.48,-0.52 20.1,-3.52 42.14,-7.21 -58.36,-97.5 -129.58,-231.29 -180.87,-334.37 -105.75,-212.43 -214.1,-477.94 -284.19,-704.09 z m -2467,-1072.51 c -10.85,515.76 109.4,1015.74 349.23,1475.06 79.36,152.06 167.32,301.19 263,445.7 0.94,0.51 20.14,27.78 44.31,62.35 84.98,40.3 208.44,81.9 291.13,115.68 l 17.73,7.29 c 111.5,45.54 197.94,78.65 280.26,107.29 103.72,36.02 197.91,63.72 287.96,84.65 36.12,8.4 86.68,18.6 120.24,22.03 0.4,0 35.03,4.98 46.79,6.61 -0.04,-8.41 0.06,-17.07 0.39,-25.9 0.96,-39.19 4.8,-78.47 11.91,-117.58 10.16,-56 26.16,-128.46 71.41,-169.2 6.83,-6.09 16.16,-12.44 26.86,-18.44 -30.86,-21.35 -144.49,-99.91 -184.11,-131.3 -137.06,-108.74 -268.03,-220.14 -389.25,-331.03 -318.27,-291.15 -590.34,-595.69 -808.66,-905.28 -124.98,-177.18 -266.68,-413.28 -355.49,-595.69 -36.06,-15.77 -66.98,-29.32 -73.71,-32.24 z m 758.08,2128.98 c 111.19,150.51 230.86,294.76 358.17,430.34 48.05,51.12 97.14,101.11 147.3,149.65 186.96,181.22 390.1,343.81 598.72,499.04 19.37,-99.57 48.36,-197.25 88.34,-291.93 -130.91,-134.55 -218.82,-309.16 -243.05,-493.54 -0.15,-1.12 -1.78,-11.92 -3.42,-28.73 -37.13,-3.86 -111.61,-15.1 -141.51,-20.93 -99.79,-19.64 -197.55,-50.17 -271.55,-74.52 -25,-8.23 -52.15,-17.5 -83.01,-28.3 -138.56,-48.46 -321.9,-106.69 -471.54,-171.95 11.97,17.24 20.27,29.07 21.55,30.87 z m 1263.48,643.12 c 4.86,-8.58 9.81,-17.07 14.88,-25.65 76.49,-128.12 175.84,-245.36 291.19,-344.15 -7.4,6.35 -94.98,-50.77 -105.62,-57.2 -36.36,-21.96 -72.02,-45.54 -106.21,-70.76 -49.74,-36.79 -98.27,-75.12 -148.28,-111.4 -26.54,-19.29 -63.26,-63.12 -86.7,-22.29 -26.74,46.48 -30.63,118.34 -31.08,171.09 -0.47,55.22 4.27,99.31 15.5,149.82 25.97,116.72 80.4,221.09 156.32,310.54 z m 115.42,2739.93 c 44.88,-23.58 80.3,-42.11 82.07,-43.05 149.45,-79.42 342.72,-135.33 520.18,-180.52 202.01,-51.37 408.96,-85.42 616.99,-99.83 136.52,-9.43 273.51,-10.29 409.89,-2.14 26.8,1.63 53.58,3.68 80.34,6.09 113.22,9.77 225.89,25.89 337.34,49.05 87.38,18.1 174.2,39.79 259.64,67.07 11.33,3.6 22.36,7.2 33.33,10.8 -55.68,-315.77 -102.01,-639.77 -279.51,-913.94 -45.77,-70.67 -98.98,-137.13 -158.1,-197.76 -15.91,-16.3 -32.16,-32.25 -48.91,-47.68 -43.29,-39.88 -89.28,-76.76 -137.65,-109.86 -133.8,-91.68 -288.57,-154.28 -450.41,-186.87 -326.53,-65.7 -681.86,-9.27 -952.07,177.77 -200.19,138.59 -354.01,352.48 -432.5,587.8 -98.7,296.05 -78.24,625.96 119.37,883.07 z m -226.47,299.21 c -75.56,52.23 -147.48,109.34 -214,171.98 -21.19,19.96 -42.14,40.68 -62.77,62.09 -294.85,305.91 -522.18,753.93 -381.92,1175.53 39.55,118.8 89.32,234.1 136.45,350.1 50.52,124.4 92.3,251.1 128.6,380.3 76.83,273.5 144.66,546.7 299.67,789 224.88,351.5 592.7,609.9 978.65,760.6 38.99,13.5 98.91,37.5 121.42,45.2 95.77,32.4 241.74,61.3 244.02,61.8 0.77,0.1 1.49,0.3 2.23,0.5 449.62,89 924.13,60 1342.37,-142.5 243.01,-117.7 450.47,-283.1 638.78,-475 50.01,-51 98.36,-103.2 142.68,-158.9 15.74,-19.8 30.99,-40 45.6,-60.7 2.38,-4.3 5.21,-8.3 8.41,-12 33.36,-38.9 59,-89.4 84.59,-133.7 27.79,-48 53.64,-97.2 77.71,-147.2 51.71,-107.4 135.25,-333.8 135.25,-333.8 133.08,-368.7 197.23,-763.3 144.81,-1152.8 -21.67,-161.1 -71.07,-321.2 -124.23,-476.37 -187.46,-547.19 -655.93,-787.03 -666.75,-793.75 -89.71,-55.82 -183,-105.91 -278.92,-150.24 -220.19,-101.8 -452.77,-169.64 -690.42,-206.69 -167.21,-26.07 -336.93,-36.87 -506.61,-33.61 -85.03,1.63 -170.05,6.77 -254.74,15.26 -24.7,2.58 -49.37,5.24 -74,8.32 -277.24,34.65 -552.33,104.71 -811.48,209.25 -58.05,23.33 -115.66,48.97 -172.4,76.67 -10.66,5.83 -79.12,40.31 -114.48,59.74 -1.95,1.08 -3.88,2.14 -5.63,3.12 -59.3,33.21 -117.05,69.21 -172.89,107.8 z m 184.56,3861.7 c -128,118.2 -277.21,235.6 -449.59,278.3 -76.07,18.9 -144.64,18.7 -216.26,-14 -61.97,-28.3 -115.81,-74.8 -164.97,-121.2 -54.31,-51.3 -104.55,-106.6 -156.03,-160.7 -59.1,-62.1 -121.86,-130.8 -196.16,-175.1 -58.46,-34.9 -113.09,-29.7 -166.16,9 -0.51,0.6 -11.23,9.1 -14.1,11.6 -49.93,43.5 -86.46,92 -109.41,148.5 -31.85,78.6 -34.68,161.1 -12.04,243.5 51.5,187.4 199.93,336.8 373.51,416.7 190.96,88 411.27,62.2 606.43,2.5 183.1,-56 354.72,-149.7 491.56,-284.7 127.8,-126.1 221.57,-283.1 289.04,-448.7 13.41,-32.9 25.94,-66.2 37.86,-99.7 -3.74,-1.9 -7.35,-3.9 -10.72,-5.7 -21.46,-11.8 -42.69,-23.9 -63.67,-36.6 -1.82,1.2 -3.63,2.4 -5.63,3.5 -0.58,0.3 -1.01,0.5 -1.5,0.8 -6.01,6.3 -13.08,11.8 -19.29,17.9 -18.56,18.3 -36.41,37.3 -54.4,56.1 -51.59,53.9 -103.63,107.4 -158.47,158 z m 2193.01,507.7 c -118.69,152.7 -265.59,314.6 -466.51,345.5 -126.3,19.4 -251.93,-4.3 -378.5,4.1 -142.94,9.5 -272.08,96.6 -235.04,254.7 75.47,321.9 482.7,256.5 709.72,159 365.38,-156.8 650.12,-487.7 797.09,-852.3 74.98,-186.1 123.74,-383.5 149.29,-582.3 3.84,-29.8 7.13,-59.8 10.02,-89.7 -78.84,52.1 -160.21,99.3 -243.63,141.4 -77.72,223.8 -197.37,432.9 -342.44,619.6 z m 70.46,-7413.95 c 2.49,-3.09 1.51,-1.88 0,0 z m -345.49,61.49 c 2.52,1.29 5.05,2.66 7.69,3.77 99.85,42.54 185.69,31.05 256.3,-11.83 133.18,-81.04 212.21,-274.09 228.84,-429.06 4.93,-45.88 7.04,-92.7 4.19,-138.84 -1.1,-17.67 -3.46,-36.02 -9.07,-53.09 -1.26,-3.86 -2.63,-7.63 -4.24,-11.32 -7.58,-17.24 -21.91,-25.89 -31.71,-39.36 -9.84,9.43 -20.28,18.61 -29.74,28.3 -26.92,27.62 -54.54,54.11 -82.82,79.67 -41.53,37.57 -84.62,72.98 -129.4,106.09 -53.22,39.27 -108.87,75.38 -167.2,108.14 -14.48,8.06 -29.07,16.12 -43.89,23.75 -108,56.26 -101.22,279.67 1.05,333.78 z m -147.2,-379.49 c -274.33,-152.48 -590.13,-250.33 -905.39,-193.98 -307.34,55.05 -587.58,253.5 -759.89,511.38 -117.49,175.89 -187.37,375.71 -210.99,583.25 -9.37,82.42 -12.34,164.75 -9.92,246.91 5.77,197.33 42.85,393.12 98.37,583.25 109.46,-129.24 249.8,-234.82 396.76,-316.63 346.26,-192.79 748.84,-166.71 886.56,-151.11 54.5,6.09 110.39,11.24 163.73,24.44 8.9,2.24 17.77,4.72 26.63,7.21 81.34,22.64 160.84,55.83 235.67,94.16 39.99,20.5 78.99,43.14 116.84,67.67 69.65,45.11 135.32,96.73 195.88,153.59 3.74,-5.31 7.89,-11.4 12.96,-18.95 23.09,-34.13 43.79,-69.89 62.65,-106.51 43.87,-85.25 76.52,-175.55 101.01,-268.17 58.29,-220.32 64.22,-451.36 18.12,-673.99 -85.51,25.81 -178.93,23.5 -265.12,0.09 -17.13,-4.63 -33.87,-10.21 -50.15,-16.47 -84.39,-32.59 -154.48,-88.42 -181.72,-181.38 -34.38,-117.41 9.24,-240.56 68,-344.76 z M 6590.77,7834.4 c 281.38,-159.94 438.75,-470.47 488.97,-781.27 18.32,-113.37 21.69,-228.97 11.56,-343.38 -6.22,-70.24 -17.55,-139.96 -33.7,-208.57 -0.78,-3.25 -1.51,-6.6 -2.31,-9.94 -0.44,0.26 -0.89,0.51 -1.33,0.77 -86.12,50.68 -189.75,80.53 -286.97,69.29 -105.86,-12.17 -190.28,-75.47 -238.57,-169.63 -1.81,-3.52 -3.21,-6.95 -4.45,-10.46 -1.12,-2.4 -2.15,-4.8 -3.08,-7.38 -40.04,-108.49 -21.25,-230.18 33.82,-330 30.52,-55.32 73.44,-104.97 122.28,-144.76 2.81,-2.32 5.68,-4.55 8.56,-6.69 -188.2,-136.45 -420.63,-198.11 -652.21,-198.45 -22.14,158.66 -82.49,311.22 -181.68,438.06 -12.24,15.69 -25.11,31.39 -39.03,46.05 33.37,140.56 47.8,284.81 43.41,428.63 -3.74,122.72 -21.15,245.1 -52.73,364.39 -42.77,161.66 -110.2,329.83 -216.46,462.76 5.51,6.43 10.95,12.86 16.34,19.38 79.57,96.31 144.93,200.59 197.08,312 204.2,222.54 541.66,210.62 790.5,69.2 z M 7111.3,5765.37 c -4.21,-8.58 -10.11,-18.61 -15.79,-25.73 -10.5,2.4 -14.85,9.09 -22.04,17.49 -34.55,40.31 -63.57,83.45 -101.99,120.58 -37.55,36.36 -79.68,68.27 -126.38,91.94 -51.73,26.15 -96.09,57.29 -131.97,103.77 -52.68,68.35 -88.56,176.15 -47.25,258.82 65.1,130.18 236.84,81.47 332.52,19.47 1.37,-0.95 2.76,-1.81 4.09,-2.66 19.76,-13.21 44.27,-35.68 66.13,-61.06 50.81,-58.92 74.8,-138.51 83.12,-215.52 0.85,-7.8 1.59,-15.61 2.13,-23.32 6.29,-91.6 -1.56,-199.99 -42.57,-283.78 z m 1199.24,306.5 c 3.21,0.17 5.65,-1.8 0,0 z m -0.06,0 c -1.13,0.34 -2.58,0.86 -4.42,1.55 4.35,-1.46 -9.5,5.48 -10.77,6.43 -10.03,7.54 -20.99,19.38 -30.47,30.19 -23.1,26.24 -42.6,55.48 -65.65,81.9 -25.02,28.55 -54.62,53.08 -84.33,76.58 -58.71,46.57 -121.87,88.93 -172.88,144.33 -92.98,101.03 -89.65,281.72 30.81,361.57 8.27,3.17 16.6,6.26 25.03,9.09 9.69,3.26 19.46,6.17 29.36,8.74 5.23,1.29 10.49,2.49 15.75,3.61 3.24,0.68 11.52,1.97 12.04,2.14 51.81,5.32 90.89,-4.12 138.56,-33.71 66.97,-41.67 118.19,-107.62 156.21,-176.14 0.31,-0.69 0.68,-1.29 1,-1.89 2.01,-3.69 4.02,-7.29 5.96,-10.98 38.5,-72.81 72.75,-159.17 78.22,-242.1 5.07,-76.67 -11.89,-148.45 -59.58,-209.85 -14.85,-19.13 -41.5,-49.91 -64.84,-51.46 z m -760.92,2062.18 c 305.09,24.7 652.62,-25.98 868.39,-263.46 194.55,-214.14 225.77,-506.24 155.47,-775 -10.5,-40.14 -23.21,-79.76 -38.02,-118.52 -29.64,-77.53 -67.53,-151.63 -111.99,-219.64 -1.17,-1.71 -2.28,-3.6 -3.45,-5.31 -18.14,23.75 -37.87,46.48 -59.43,67.75 -72.63,71.87 -164.11,124.01 -267.86,128.47 -283.47,12.09 -444.27,-304.45 -324.62,-545.52 11.95,-24.01 26.67,-46.05 43.23,-66.64 -66.64,-18.18 -134.15,-32.67 -202.14,-45.11 -114.39,-20.83 -230.1,-35.84 -345.17,-52.31 -19.64,52.92 -46.71,102.74 -82.47,146.31 17.1,58.31 30.8,117.92 41.11,178.12 21.76,127.1 28.25,257.36 18.87,386.26 -15.37,211.05 -73.37,418.59 -177.03,602.81 -56.7,100.76 -129.02,192.78 -213.22,271.17 199.15,156.6 445.82,290.21 698.33,310.62 z m 2417.6,-1618.54 c -2.14,-14.75 -4.63,-29.51 -7.72,-44.17 -5.23,-25.38 -13.37,-52.4 -34.13,-68.01 -68.01,-51.11 -572.79,430.95 -515.33,611.13 23.58,73.84 72.47,146.73 144.93,173.23 61.58,22.56 123.84,11.58 183.36,-11.4 113.2,-43.92 160.11,-140.99 191.16,-251.45 37.22,-132.24 57.03,-272.37 37.73,-409.33 z m -512.58,1850.6 c 64.57,-6.34 245.61,-46.39 422.88,-149.56 175.54,-102.23 291.44,-303.08 337.94,-504.61 12.6,-54.2 18.5,-108.14 18.6,-161.57 0.1,-56.77 -6.2,-112.86 -18.3,-167.75 -13.2,-59.94 -33.2,-118.43 -58.8,-174.86 -28,-62.09 -62.8,-121.69 -102.9,-177.95 -4.9,14.58 -10.2,29.07 -15.7,43.22 -84,214.57 -336.39,320.49 -551.99,251.19 -0.26,0 -0.43,-0.17 -0.6,-0.17 -5.66,-1.72 -11.41,-4.03 -17.24,-7.29 -100.17,-56.52 -188.24,-163.2 -204.88,-279.15 -8.75,-60.63 -4.97,-123.15 14.41,-181.55 22.72,-68.35 62.86,-121.52 108.91,-175.64 6.52,-7.72 13.12,-15.44 19.64,-23.15 -202.13,-53.26 -411.73,-71.87 -621.07,-52.57 -37.99,3.51 -76.33,8.49 -114.83,15.18 -40.48,7.03 -81.13,15.95 -121.98,27.27 -6.01,1.71 -11.96,3.51 -17.88,5.4 35.68,52.49 67.82,108.06 96.03,165.86 82.68,169.46 130.7,358.22 129.84,544.75 -0.6,140.38 -28.98,279.57 -91.41,408.3 -62.78,129.5 -160.02,240.73 -277.51,323.31 279.56,257.37 702.1,306.85 1066.84,271.34 z M 11309.9,6714.38 c 1.7,-0.85 1.4,-1.71 0,0 z m -0.7,1.12 c -0.9,1.37 -2,3.69 -3.2,7.37 -12.2,37.74 -38.8,76.42 -58.4,110.81 -21.1,37.04 -43.7,73.15 -67.5,108.4 -48.3,69.37 -141.6,185.15 -165.8,212.42 -26.3,29.68 -54.6,59.95 -70.8,96.66 -10.3,23.4 -12.7,47.59 -6.1,72.29 5.9,21.95 28.7,39.28 45.1,54.03 37,33.1 77,62.09 124.4,78.3 51,17.49 112.5,-37.22 145.3,-71.36 40.9,-42.53 72.6,-93.39 99.8,-145.53 2.6,-4.97 52.4,-116.29 73.3,-216.89 7.7,-50.94 8,-102.39 -2,-151.79 -11,-53.77 -33.9,-106.69 -80.4,-138.67 -8.5,-5.92 -22.2,-15.44 -33.7,-16.04 z m -845.6,1792.72 c 124.5,-1.46 250.1,-13.12 364,-32.25 95.1,-16.04 191.1,-35.93 281.2,-71.01 135.3,-52.65 249.7,-146.64 341.3,-257.79 96.8,-117.4 182.9,-263.02 222.8,-410.27 20.7,-76.24 30.5,-158.66 13.7,-236.53 -1,-4.89 -2.2,-9.69 -3.4,-14.49 -19.4,-74.7 -61,-134.56 -119.4,-185.93 -17.5,-15.52 -36,-30.01 -55,-43.91 -66.5,149.91 -165.1,297.59 -332.9,347.33 -8.5,3.17 -30.4,7.54 -41.3,7.2 -88.3,-2.83 -165.3,-52.4 -232.1,-106.25 -57.8,-46.83 -108.4,-98.71 -117.4,-176.24 -13.1,-111.49 53.8,-200.34 123.6,-279.15 3.1,-3.43 6.1,-6.94 9.1,-10.46 -83.7,-11.83 -168.3,-17.24 -253,-15.86 -62.8,1.02 -126.3,5.74 -189.1,15.35 -71.4,10.97 -141.8,28.3 -209.1,53.85 21.6,41.17 40.7,83.53 56.8,126.84 48,128.73 70.4,266.03 56.2,407.53 -4.5,44.34 -12.2,88.25 -22.7,131.38 -47.6,195.11 -155.4,373.66 -305.3,508.9 -54.85,49.4 -113.6,91.77 -175.94,126.84 169.24,98.02 392.94,117.15 587.94,114.92 z m 1342.7,-1125.86 c 26.5,65.78 38.4,137.74 37.5,208.49 -0.6,54.37 -8,107.63 -20.5,159.77 174.2,-1.8 525.2,-91.17 733,-199.14 -197.1,-37.9 -574.2,-138.84 -767.8,-206.08 6.1,11.67 12.1,23.93 17.8,36.96 z M 3229,7915.88 c -95.47,-76.07 -192.3,-153 -297.16,-219.29 2.88,24.52 7.31,48.97 11.79,73.24 5.15,27.79 11.12,55.4 17.99,82.67 22.34,88.85 54.59,174.44 102.21,253.59 35.07,58.32 78.43,114.32 131.05,158.57 -2.33,-115.35 13.03,-231.55 41.01,-343.3 -2.29,-1.8 -4.59,-3.6 -6.89,-5.48 z m 13064.4,-734.54 c -3.9,36.45 -13,73.67 -47.3,93.74 -25.5,15.01 -59,21.35 -87.1,30.45 -38.7,12.43 -77.4,24.44 -116.3,36.1 -141.8,42.62 -285.1,80.27 -429.4,113.97 -291.1,68.1 -585.9,119.72 -881.8,162.26 -301.7,43.48 -603.6,68.87 -908.5,72.64 -306.5,3.86 -612.8,-9.09 -918.8,-25.38 -69.7,-3.78 -139.4,-7.64 -209,-11.58 -161.9,119.03 -376.1,180.95 -562.9,214.31 -118.3,21.1 -239,33.45 -359.3,31.73 -31,72.3 -69.8,141.68 -111.6,207.45 -89.9,141.76 -203.5,268.95 -346.2,359.25 -215.3,136.45 -490.6,172.46 -740.2,187.22 -285.2,16.89 -625.76,-4.12 -859.29,-189.19 -53.77,18.1 -109.51,31.39 -167.23,39.62 -205.82,29.33 -415.16,27.27 -620.3,-6.86 C 8679.05,8455.56 8432,8354.8 8253.3,8172.9 c -187.62,89.02 -401.48,117.75 -607.5,114.49 -339.37,-5.32 -651.98,-159 -912.93,-368.51 -155.04,107.37 -338.23,171.26 -533.5,168.69 -106.62,-1.37 -211.58,-24.79 -306.01,-69.98 51.71,178.98 84.58,362.33 114.25,546.2 4.28,26.5 8.6,53 13.49,79.5 30.59,11.83 59.57,23.76 86.87,35.59 95.54,41.68 245.22,120.32 290.44,146.31 509.21,242.11 686.64,677.35 759.49,848.88 146.85,345.73 201.16,725.03 163.95,1098.73 -27.12,272.4 -97.53,537.3 -200.04,790.7 -53.95,146.4 -118.34,289.4 -197.2,423.7 -20.98,35.7 -43.39,70.7 -66.87,105 -50.48,78.4 -106.96,150.3 -164.01,214.6 -79.45,99.1 -197.03,199.5 -284.1,267.9 2.83,7.8 4.24,16.2 3.63,24.8 -29.28,411.6 -133.17,828.1 -368.74,1172.4 -165.02,241.1 -390.4,445 -659.1,563.8 -184.39,81.5 -401.79,139.8 -603.59,95.6 -168.32,-36.9 -308.39,-194.3 -340.06,-361.8 -17.49,-92.5 -5.33,-189.6 52.37,-266.4 76.7,-102 201.83,-146.2 325.49,-155.6 124.46,-9.4 252.64,21.7 375.75,-4.7 93.44,-20 156.8,-70.8 221.24,-133.2 166.89,-161.8 297.13,-366.9 394.22,-576.9 2.75,-6 5.31,-12 7.97,-18 -317.93,125.9 -660.01,179.8 -1006.26,148.8 -107.19,-9.6 -214.38,-23.2 -319.26,-47.3 -102.16,-23.5 -202.21,-53.3 -288.6,-85.1 -48.12,-17.7 -171.71,-71 -278.78,-120.5 -63.3,171.6 -144.4,335.4 -258.58,479.7 -127.92,161.7 -298.17,288.2 -487.24,369.6 -211.24,91 -446.96,145.2 -677.05,110.8 -219.23,-32.7 -419.34,-167.3 -546.18,-346.8 -121.98,-172.6 -169.56,-393.4 -78.05,-589.8 54.93,-117.9 172.55,-248.4 309.53,-262.8 149.15,-15.8 277,110.2 372.51,207.7 55.65,56.9 108.72,116.2 165.28,172.1 98.55,97.6 181.02,155.7 319.26,104.8 76.48,-28.2 151.06,-77.3 216.62,-128 119.54,-92.5 217.09,-206.1 325.2,-310.6 -96.96,-69.5 -187.82,-147.7 -271.92,-231.8 -204.23,-204.2 -349.4,-451 -442.86,-723.5 -47.63,-138.9 -82.21,-281.8 -122.29,-422.9 -37.32,-131.5 -81.53,-259.6 -133.18,-386 -48.29,-118.2 -99.36,-236.2 -137.03,-358.3 -39.44,-128 -48.83,-263.4 -31.75,-396 34.48,-267.51 160.78,-515.62 323.55,-727.83 123.47,-160.98 270.92,-297.03 434.1,-411.38 3.31,-2.32 6.58,-4.68 9.9,-6.98 36.14,-25.03 73,-49.04 110.58,-72.02 4.29,-2.58 28.42,-15.52 60.72,-32.59 -85.36,-118.95 -143.11,-251.62 -171.81,-395.27 -237.44,-121.69 -365.78,-381.2 -414.34,-636.68 -9.88,-52.06 -24.75,-111.57 -20.82,-166.8 0.98,-13.64 3.06,-27.1 6.69,-40.05 15.85,-56.52 68.73,-104.71 129.95,-88.76 70.16,18.26 136.72,77.78 193.76,119.38 57.83,42.19 114.8,85.58 171.32,129.49 20.09,-56.68 43.74,-112.77 71.94,-165.94 -75.8,-227.44 -128.13,-470.13 -138.07,-711.89 -3.45,-83.71 -1.85,-167.23 5.66,-250.08 -210.21,-154.45 -416.78,-314.65 -608.24,-492 -48.06,-44.51 -94.92,-90.22 -140.72,-136.87 -144.4,-147.08 -277.91,-304.28 -402.27,-469.11 -315.27,-417.82 -590.68,-878.18 -730.59,-1386.13 -89.82,-326.15 -121.24,-665.84 -101.79,-1003.13 3.49,-60.46 59.83,-87.82 112.33,-64.49 389.44,172.97 784.29,335.74 1188.69,470.64 235.73,78.73 475.51,149.05 720.08,194.51 124.28,23.07 224.3,35.93 359.69,40.13 59.68,1.89 132.13,-6.09 186.6,23.24 62.72,33.79 86.92,109.6 104.22,174.01 21.48,80.01 35.19,249.56 126.48,275.8 61.7,17.67 81.24,-19.38 97.94,-73.41 28.9,-93.56 39.27,-192.36 59.01,-287.98 8.94,-43.31 12.43,-101.02 53.92,-126.66 22.26,-13.81 49.55,-13.9 74.8,-12.96 85.43,3.09 171.4,19.39 255.93,31.05 112.56,15.44 225.16,29.16 338.19,40.65 91.66,9.43 191.09,13.55 277.8,47.26 77.24,30.09 110.97,83.78 99.38,165.6 -11.62,82.07 -17.51,164.91 -16.13,247.84 3.08,184.13 44.59,363.02 189.78,486.86 134.43,114.57 320.23,169.63 494.51,175.03 334.18,10.38 663.75,-187.72 869.98,-441.49 53.69,-66.03 94.22,-139.79 141.82,-209.94 17.92,-26.32 38.01,-54.28 70.79,-62.69 76.3,-19.55 125.72,79.59 172.11,122.12 218.8,200.6 511.68,183.53 770.3,80.45 2.62,-1.12 13.1,-5.41 17.44,-7.2 4.43,-1.89 8.85,-3.78 13.28,-5.67 11.94,-5.05 26.06,-12.69 39.15,-15.69 30.14,-6.95 64.48,-1.29 95.13,-0.17 72.08,2.66 144.15,4.97 216.21,7.89 436.96,17.75 873.22,60.03 1302.02,148.1 557.55,114.49 1103.45,306.85 1592.85,600.06 575.5,344.76 1056.9,828.27 1397.5,1406.38 88.4,149.91 185.8,312.08 240.6,478.97 385.3,5.65 770.2,17.66 1155.4,2.57 510.6,-20.07 1018.3,-84.39 1515,-205.48 142.6,-34.73 284.1,-73.93 424.3,-117.32 35.1,-10.89 70.2,-22.04 105.2,-33.44 30.7,-10.04 59.4,-18.7 89.9,-1.64 28.8,16.13 42.3,45.71 53.1,75.21 23.9,65.27 32,137.74 40.7,206.17 8.1,63.21 16.3,129.24 9.7,192.87" data-index="85"></path></g></g></g></svg>